<?xml version="1.0" encoding="utf-8"?>
<!-- Generator: Adobe Illustrator 19.0.0, SVG Export Plug-In . SVG Version: 6.00 Build 0)  -->
<svg version="1.1" id="Layer_2" xmlns="http://www.w3.org/2000/svg" xmlns:xlink="http://www.w3.org/1999/xlink" x="0px" y="0px"
	 viewBox="-515.7 368.6 104.9 56.7" style="enable-background:new -515.7 368.6 104.9 56.7;" xml:space="preserve">
<style type="text/css">
	.st0{fill:#E14040;}
</style>
<g id="XMLID_2_">
	<path class="st0" d="M-506,388.4c-1.1,0-2-0.1-2.9-0.4c-0.8-0.3-1.5-0.7-2.1-1.2c-0.6-0.5-1.1-1-1.5-1.7c-0.4-0.6-0.7-1.3-0.9-2
		s-0.4-1.4-0.5-2.1c-0.1-0.7-0.1-1.4-0.1-2.1c0-0.6,0-1.3,0.1-2c0.1-0.7,0.2-1.4,0.5-2.1c0.2-0.7,0.5-1.3,0.9-1.9s0.9-1.2,1.5-1.6
		s1.3-0.8,2.1-1.1c0.8-0.3,1.8-0.4,2.9-0.4c1.6,0,3,0.3,4,0.9c1,0.6,1.8,1.3,2.4,2.2c0.6,0.9,1,1.9,1.2,3c0.2,1.1,0.3,2.1,0.3,3.1
		c0,0.7,0,1.3-0.1,2.1c-0.1,0.7-0.2,1.4-0.5,2.1s-0.5,1.4-0.9,2c-0.4,0.6-0.9,1.2-1.5,1.7c-0.6,0.5-1.3,0.9-2.1,1.2
		C-504,388.2-504.9,388.4-506,388.4z M-506,374.8c-0.4,0-0.7,0.1-0.9,0.4c-0.2,0.2-0.4,0.6-0.6,1s-0.2,0.8-0.3,1.3
		c0,0.5-0.1,1-0.1,1.4c0,0.5,0,1,0.1,1.5c0.1,0.5,0.1,1,0.3,1.4c0.1,0.4,0.3,0.8,0.6,1c0.2,0.3,0.5,0.4,0.9,0.4
		c0.4,0,0.7-0.1,0.9-0.4c0.2-0.3,0.4-0.6,0.5-1c0.1-0.4,0.2-0.9,0.3-1.4c0-0.5,0.1-1,0.1-1.5c0-0.5,0-0.9-0.1-1.4
		c-0.1-0.5-0.1-0.9-0.3-1.3s-0.3-0.7-0.5-1C-505.3,374.9-505.6,374.8-506,374.8z"/>
	<path class="st0" d="M-485,376.5l-3,2l-2.8-4.4l6.3-4h5.5v17.7h-6V376.5z"/>
	<path class="st0" d="M-511.1,396h3.5l3.9,9.9h-3.6l-0.5-1.5h-3.1l-0.5,1.5h-3.5L-511.1,396z M-509.3,399.4l-0.8,2.5h1.6
		L-509.3,399.4z"/>
	<path class="st0" d="M-501.6,405.9V396h3.7c0.8,0,1.5,0.1,2.2,0.2c0.7,0.2,1.3,0.4,1.9,0.8c0.5,0.4,1,0.9,1.3,1.5
		c0.3,0.6,0.5,1.4,0.5,2.4c0,0.9-0.2,1.6-0.5,2.3s-0.7,1.2-1.3,1.6c-0.5,0.4-1.1,0.7-1.8,0.9s-1.4,0.3-2.1,0.3H-501.6z
		 M-498.3,398.8v4.2h0.6c0.8,0,1.4-0.2,1.8-0.5c0.4-0.3,0.6-0.9,0.6-1.7c0-0.6-0.2-1.1-0.6-1.5c-0.4-0.4-1-0.5-1.7-0.5H-498.3z"/>
	<path class="st0" d="M-486.2,400.3l0.2,5.6h-3.1V396h4.4l1.8,5.3h0.1l1.6-5.3h4.5v9.9h-3.2l0.1-5.6l-0.1,0l-1.8,5.6h-2.4
		L-486.2,400.3L-486.2,400.3z"/>
	<path class="st0" d="M-473.6,396h3.4v9.9h-3.4V396z"/>
	<path class="st0" d="M-467,396h3.3l2.8,5h0.1l-0.1-5h3.2v9.9h-3.4l-2.7-4.7h-0.1l0.1,4.7h-3.2V396z"/>
	<path class="st0" d="M-510.6,424.1c-0.4,0-0.8,0-1.2-0.1c-0.4-0.1-0.8-0.2-1.1-0.3c-0.4-0.1-0.7-0.3-1-0.5
		c-0.3-0.2-0.6-0.4-0.9-0.6l2-2.2c0.2,0.3,0.5,0.5,0.9,0.7c0.4,0.2,0.8,0.3,1.2,0.3c0.2,0,0.4,0,0.5-0.1c0.2-0.1,0.2-0.2,0.2-0.4
		c0-0.1,0-0.2-0.1-0.2c-0.1-0.1-0.1-0.1-0.3-0.2c-0.1-0.1-0.3-0.1-0.5-0.2c-0.2-0.1-0.5-0.2-0.9-0.3c-0.3-0.1-0.7-0.2-1-0.4
		s-0.6-0.3-0.8-0.6c-0.2-0.2-0.4-0.5-0.6-0.8c-0.1-0.3-0.2-0.7-0.2-1.1c0-0.6,0.1-1.1,0.4-1.6c0.3-0.4,0.6-0.8,1-1.1
		c0.4-0.3,0.8-0.5,1.3-0.6c0.5-0.1,1-0.2,1.5-0.2c0.7,0,1.3,0.1,2,0.4c0.7,0.3,1.3,0.6,1.8,1.1l-2.1,2.1c-0.2-0.3-0.5-0.5-0.8-0.6
		c-0.3-0.1-0.6-0.2-0.9-0.2c-0.2,0-0.4,0-0.6,0.1c-0.1,0.1-0.2,0.2-0.2,0.3c0,0.1,0.1,0.3,0.2,0.3c0.2,0.1,0.4,0.2,0.7,0.3
		c0.4,0.1,0.7,0.2,1.1,0.4c0.4,0.1,0.8,0.3,1.1,0.6c0.3,0.2,0.6,0.5,0.8,0.9c0.2,0.3,0.3,0.8,0.3,1.3c0,0.6-0.1,1.1-0.4,1.6
		c-0.2,0.4-0.6,0.8-0.9,1.1s-0.8,0.5-1.3,0.7S-510.1,424.1-510.6,424.1z"/>
	<path class="st0" d="M-498.1,423.9h-3.3v-4.1l-3.7-5.9h4l1.6,2.9l1.5-2.9h3.9l-3.9,5.9V423.9z"/>
	<path class="st0" d="M-489,424.1c-0.4,0-0.8,0-1.2-0.1s-0.8-0.2-1.1-0.3c-0.4-0.1-0.7-0.3-1-0.5c-0.3-0.2-0.6-0.4-0.9-0.6l2-2.2
		c0.2,0.3,0.5,0.5,0.9,0.7c0.4,0.2,0.8,0.3,1.2,0.3c0.2,0,0.4,0,0.5-0.1c0.2-0.1,0.2-0.2,0.2-0.4c0-0.1,0-0.2-0.1-0.2
		c-0.1-0.1-0.1-0.1-0.3-0.2c-0.1-0.1-0.3-0.1-0.5-0.2c-0.2-0.1-0.5-0.2-0.9-0.3c-0.3-0.1-0.7-0.2-1-0.4s-0.6-0.3-0.8-0.6
		c-0.2-0.2-0.4-0.5-0.6-0.8c-0.1-0.3-0.2-0.7-0.2-1.1c0-0.6,0.1-1.1,0.4-1.6c0.3-0.4,0.6-0.8,1-1.1c0.4-0.3,0.8-0.5,1.3-0.6
		c0.5-0.1,1-0.2,1.5-0.2c0.7,0,1.3,0.1,2,0.4c0.7,0.3,1.3,0.6,1.8,1.1l-2.1,2.1c-0.2-0.3-0.5-0.5-0.8-0.6c-0.3-0.1-0.6-0.2-0.9-0.2
		c-0.2,0-0.4,0-0.6,0.1c-0.1,0.1-0.2,0.2-0.2,0.3c0,0.1,0.1,0.3,0.2,0.3c0.2,0.1,0.4,0.2,0.7,0.3c0.4,0.1,0.7,0.2,1.1,0.4
		c0.4,0.1,0.8,0.3,1.1,0.6c0.3,0.2,0.6,0.5,0.8,0.9c0.2,0.3,0.3,0.8,0.3,1.3c0,0.6-0.1,1.1-0.4,1.6c-0.2,0.4-0.6,0.8-0.9,1.1
		s-0.8,0.5-1.3,0.7S-488.5,424.1-489,424.1z"/>
	<path class="st0" d="M-477.4,423.9h-3.3v-7.1h-2.4V414h8.2v2.8h-2.4V423.9z"/>
	<path class="st0" d="M-472.5,414h6.8v2.8h-3.7v0.9h3.5v2.6h-3.5v0.9h3.9v2.8h-7.1V414z"/>
	<path class="st0" d="M-459.8,418.3l0.2,5.6h-3.1V414h4.4l1.8,5.3h0.1l1.6-5.3h4.5v9.9h-3.2l0.1-5.6l-0.1,0l-1.8,5.6h-2.4
		L-459.8,418.3L-459.8,418.3z"/>
</g>
</svg>
