<?xml version="1.0" encoding="utf-8"?>
<!-- Generator: Adobe Illustrator 19.0.0, SVG Export Plug-In . SVG Version: 6.00 Build 0)  -->
<svg version="1.1" id="Layer_1" xmlns="http://www.w3.org/2000/svg" xmlns:xlink="http://www.w3.org/1999/xlink" x="0px" y="0px"
	 viewBox="0 0 147.4 116.2" style="enable-background:new 0 0 147.4 116.2;" xml:space="preserve">
<style type="text/css">
	.st0{fill:#E14040;}
</style>
<g id="XMLID_1_">
	<path id="XMLID_354_" d="M6.1,4.7H0.8V0.8h15.4v3.9h-5.3v15.7H6.1V4.7z"/>
	<path id="XMLID_356_" d="M37.6,0.8h4.7v7.5h6.5V0.8h4.7v19.6h-4.7v-8.1h-6.5v8.1h-4.7V0.8z"/>
	<path id="XMLID_358_" d="M76.5,0.8h12.5v3.9h-7.7v3.6h6.6v4h-6.6v4.2h8v4H76.5V0.8z"/>
	<path id="XMLID_360_" class="st0" d="M7.4,45.9c-0.9,0-1.7-0.1-2.4-0.4c-0.7-0.2-1.3-0.6-1.8-1S2.3,43.7,2,43.1
		c-0.3-0.5-0.6-1.1-0.8-1.7c-0.2-0.6-0.3-1.2-0.4-1.8c-0.1-0.6-0.1-1.2-0.1-1.7c0-0.5,0-1.1,0.1-1.7C0.9,35.6,1,35,1.2,34.4
		s0.4-1.1,0.8-1.6c0.3-0.5,0.7-1,1.2-1.4s1.1-0.7,1.8-0.9c0.7-0.2,1.5-0.3,2.4-0.3c1.4,0,2.5,0.2,3.4,0.7c0.9,0.5,1.5,1.1,2,1.9
		c0.5,0.8,0.8,1.6,1,2.5s0.3,1.8,0.3,2.6c0,0.5,0,1.1-0.1,1.7c-0.1,0.6-0.2,1.2-0.4,1.8c-0.2,0.6-0.4,1.1-0.8,1.7
		c-0.3,0.5-0.7,1-1.2,1.4c-0.5,0.4-1.1,0.7-1.8,1C9.1,45.7,8.3,45.9,7.4,45.9z M7.4,34.5c-0.3,0-0.6,0.1-0.8,0.3
		c-0.2,0.2-0.4,0.5-0.5,0.8s-0.2,0.7-0.2,1.1c0,0.4-0.1,0.8-0.1,1.2c0,0.4,0,0.8,0.1,1.2c0,0.4,0.1,0.8,0.2,1.2
		c0.1,0.4,0.3,0.6,0.5,0.9c0.2,0.2,0.4,0.3,0.8,0.3c0.3,0,0.6-0.1,0.8-0.3c0.2-0.2,0.4-0.5,0.5-0.9c0.1-0.3,0.2-0.7,0.2-1.2
		c0-0.4,0.1-0.8,0.1-1.2c0-0.4,0-0.8-0.1-1.2c0-0.4-0.1-0.8-0.2-1.1S8.3,35,8.1,34.8C7.9,34.6,7.7,34.5,7.4,34.5z"/>
	<path id="XMLID_363_" class="st0" d="M24.9,35.9l-2.5,1.7l-2.4-3.7l5.3-3.4H30v14.9h-5V35.9z"/>
	<path id="XMLID_365_" class="st0" d="M39.2,36.8c0-0.4,0.1-0.7,0.2-1c0.1-0.3,0.3-0.6,0.6-0.8c0.2-0.2,0.5-0.4,0.8-0.5
		c0.3-0.1,0.7-0.2,1-0.2c0.3,0,0.7,0.1,1,0.2c0.3,0.1,0.6,0.3,0.8,0.5c0.2,0.2,0.4,0.5,0.6,0.8s0.2,0.6,0.2,1c0,0.4-0.1,0.7-0.2,1
		c-0.1,0.3-0.3,0.6-0.6,0.8c-0.2,0.2-0.5,0.4-0.8,0.5c-0.3,0.1-0.6,0.2-1,0.2c-0.4,0-0.7-0.1-1-0.2c-0.3-0.1-0.6-0.3-0.8-0.5
		c-0.2-0.2-0.4-0.5-0.6-0.8C39.3,37.5,39.2,37.2,39.2,36.8z M39.2,43c0-0.3,0.1-0.7,0.2-1c0.1-0.3,0.3-0.6,0.6-0.8
		c0.2-0.2,0.5-0.4,0.8-0.5c0.3-0.1,0.7-0.2,1-0.2c0.3,0,0.7,0.1,1,0.2c0.3,0.1,0.6,0.3,0.8,0.5s0.4,0.5,0.6,0.8s0.2,0.6,0.2,1
		c0,0.4-0.1,0.7-0.2,1c-0.1,0.3-0.3,0.6-0.6,0.8s-0.5,0.4-0.8,0.5c-0.3,0.1-0.6,0.2-1,0.2c-0.4,0-0.7-0.1-1-0.2
		c-0.3-0.1-0.6-0.3-0.8-0.5c-0.2-0.2-0.4-0.5-0.6-0.8C39.3,43.7,39.2,43.4,39.2,43z"/>
	<path id="XMLID_368_" class="st0" d="M62.3,45.4h-4.5v-2.6h-7.2v-4.1l5.6-8.2h6v8.3h2v3.9h-2V45.4z M57.8,35.1l-2.5,3.8h2.6
		L57.8,35.1L57.8,35.1z"/>
	<path id="XMLID_371_" class="st0" d="M0.9,55.5h4.3c0.5,0,1,0,1.4,0.1c0.5,0.1,0.9,0.3,1.3,0.5c0.4,0.2,0.7,0.6,0.9,1
		c0.2,0.4,0.4,0.9,0.4,1.6c0,0.6-0.1,1.1-0.4,1.6S8,61.2,7.5,61.4l2.5,4H6.2l-1.9-3.5H4.2v3.5H0.9V55.5z M4.1,59.7h0.7
		c0.1,0,0.2,0,0.4,0c0.1,0,0.3-0.1,0.4-0.1s0.2-0.1,0.3-0.3s0.1-0.2,0.1-0.4s0-0.3-0.1-0.4c-0.1-0.1-0.1-0.2-0.2-0.2
		c-0.1-0.1-0.2-0.1-0.3-0.1c-0.1,0-0.2,0-0.3,0H4.1V59.7z"/>
	<path id="XMLID_374_" class="st0" d="M11.9,60.4c0-0.8,0.1-1.5,0.4-2.1c0.3-0.6,0.7-1.2,1.2-1.6c0.5-0.4,1.1-0.8,1.7-1
		c0.7-0.2,1.4-0.4,2.2-0.4s1.5,0.1,2.2,0.4c0.7,0.2,1.3,0.6,1.8,1c0.5,0.4,0.9,1,1.2,1.6c0.3,0.6,0.4,1.4,0.4,2.1
		c0,0.8-0.1,1.5-0.4,2.2c-0.3,0.7-0.7,1.2-1.2,1.7c-0.5,0.5-1.1,0.8-1.8,1.1s-1.4,0.4-2.2,0.4s-1.5-0.1-2.2-0.4s-1.3-0.6-1.7-1.1
		c-0.5-0.5-0.9-1-1.2-1.7S11.9,61.2,11.9,60.4z M15.4,60.4c0,0.3,0,0.6,0.1,0.9s0.2,0.5,0.4,0.7c0.2,0.2,0.4,0.3,0.6,0.5
		s0.5,0.2,0.8,0.2s0.5-0.1,0.8-0.2c0.2-0.1,0.4-0.3,0.6-0.5c0.2-0.2,0.3-0.4,0.4-0.7s0.1-0.6,0.1-0.9c0-0.3,0-0.6-0.1-0.9
		c-0.1-0.3-0.2-0.5-0.4-0.7s-0.4-0.3-0.6-0.4c-0.2-0.1-0.5-0.2-0.8-0.2s-0.5,0.1-0.8,0.2s-0.5,0.2-0.6,0.4c-0.2,0.2-0.3,0.4-0.4,0.7
		C15.5,59.8,15.4,60.1,15.4,60.4z"/>
	<path id="XMLID_377_" class="st0" d="M30.1,65.7c-0.8,0-1.4-0.1-2-0.3c-0.6-0.2-1.1-0.5-1.4-0.9c-0.4-0.4-0.7-0.8-0.9-1.3
		c-0.2-0.5-0.3-1.1-0.3-1.6v-6h3.3v5.7c0,0.5,0.1,0.8,0.3,1.1c0.2,0.3,0.6,0.4,1,0.4s0.7-0.1,1-0.4c0.2-0.3,0.3-0.6,0.3-1.1v-5.7
		h3.3v6c0,0.6-0.1,1.1-0.3,1.6c-0.2,0.5-0.5,0.9-0.9,1.3c-0.4,0.4-0.9,0.7-1.5,0.9C31.6,65.6,30.9,65.7,30.1,65.7z"/>
	<path id="XMLID_379_" class="st0" d="M42.9,65.4h-3.3v-7.1h-2.4v-2.8h8.2v2.8h-2.4V65.4z"/>
	<path id="XMLID_381_" class="st0" d="M47.7,55.5h6.8v2.8h-3.7v0.9h3.5v2.6h-3.5v0.9h3.9v2.8h-7.1V55.5z"/>
	<path id="XMLID_383_" class="st0" d="M3.9,79.8L4,85.4H0.9v-9.9h4.4l1.8,5.3h0.1l1.6-5.3h4.5v9.9H10l0.1-5.6l-0.1,0l-1.8,5.6H5.8
		L3.9,79.8L3.9,79.8z"/>
	<path id="XMLID_385_" class="st0" d="M19.2,75.5h3.5l3.9,9.9H23L22.5,84h-3.1l-0.5,1.5h-3.5L19.2,75.5z M20.9,79l-0.8,2.5h1.6
		L20.9,79z"/>
	<path id="XMLID_388_" class="st0" d="M28.7,75.5H32l2.8,5h0.1l-0.1-5h3.2v9.9h-3.4l-2.7-4.7h-0.1l0.1,4.7h-3.2V75.5z"/>
	<path id="XMLID_390_" class="st0" d="M43.9,75.5h3.5l3.9,9.9h-3.6L47.2,84H44l-0.5,1.5H40L43.9,75.5z M45.7,79l-0.8,2.5h1.6
		L45.7,79z"/>
	<path id="XMLID_393_" class="st0" d="M58.2,85.7c-0.8,0-1.5-0.1-2.2-0.4c-0.7-0.2-1.2-0.6-1.7-1c-0.5-0.5-0.9-1-1.2-1.6
		c-0.3-0.6-0.4-1.4-0.4-2.2s0.1-1.5,0.4-2.2c0.3-0.6,0.7-1.2,1.1-1.7c0.5-0.5,1.1-0.8,1.7-1.1s1.4-0.4,2.1-0.4
		c0.8,0,1.5,0.1,2.2,0.4c0.7,0.3,1.3,0.6,1.7,1L60.1,79c-0.2-0.2-0.4-0.4-0.7-0.6c-0.3-0.1-0.6-0.2-1-0.2c-0.3,0-0.5,0.1-0.8,0.2
		s-0.5,0.3-0.7,0.5c-0.2,0.2-0.4,0.4-0.5,0.7c-0.1,0.3-0.2,0.6-0.2,0.9c0,0.7,0.2,1.3,0.5,1.7c0.4,0.4,0.9,0.7,1.7,0.7
		c0.1,0,0.3,0,0.4,0c0.1,0,0.3-0.1,0.4-0.1v-0.8h-1.6v-2.6h4.5v5.4c-0.2,0.1-0.5,0.3-0.8,0.4c-0.3,0.1-0.6,0.2-1,0.3
		s-0.7,0.2-1.1,0.2C59,85.7,58.6,85.7,58.2,85.7z"/>
	<path id="XMLID_395_" class="st0" d="M65.3,75.5h6.8v2.8h-3.7v0.9h3.5v2.6h-3.5v0.9h3.9v2.8h-7.1V75.5z"/>
	<path id="XMLID_397_" class="st0" d="M78,79.8l0.2,5.6h-3.1v-9.9h4.4l1.8,5.3h0.1l1.6-5.3h4.5v9.9h-3.2l0.1-5.6l-0.1,0l-1.8,5.6
		h-2.4L78,79.8L78,79.8z"/>
	<path id="XMLID_399_" class="st0" d="M90.6,75.5h6.8v2.8h-3.7v0.9h3.5v2.6h-3.5v0.9h3.9v2.8h-7.1V75.5z"/>
	<path id="XMLID_401_" class="st0" d="M100.4,75.5h3.3l2.8,5h0.1l-0.1-5h3.2v9.9h-3.4l-2.7-4.7h-0.1l0.1,4.7h-3.2V75.5z"/>
	<path id="XMLID_403_" class="st0" d="M117.9,85.4h-3.3v-7.1h-2.4v-2.8h8.2v2.8h-2.4V85.4z"/>
	<path id="XMLID_405_" d="M0.4,95.8h4.8l1.2,8.9l0.8,6.2h0.1c0.4-2.1,0.8-4.2,1.2-6.2l2-8.9h4l2.1,8.9c0.4,2,0.7,4.1,1.1,6.2h0.1
		c0.2-2.1,0.5-4.2,0.7-6.2l1.3-8.9h4.5l-3.4,19.6h-5.9l-1.8-8.5c-0.3-1.5-0.6-3.1-0.8-4.6h-0.1c-0.2,1.5-0.5,3.1-0.8,4.6l-1.7,8.5H4
		L0.4,95.8z"/>
	<path id="XMLID_407_" d="M40.1,95.8h4.7v7.5h6.5v-7.5H56v19.6h-4.7v-8.1h-6.5v8.1h-4.7V95.8z"/>
	<path id="XMLID_409_" d="M73.7,95.8h12.5v3.9h-7.7v3.6H85v4h-6.6v4.2h8v4H73.7V95.8z"/>
	<path id="XMLID_411_" d="M103.5,95.8H116v3.9h-7.7v3.6h6.6v4h-6.6v4.2h8v4h-12.7V95.8z"/>
	<path id="XMLID_413_" d="M133.3,95.8h4.7v15.7h7.6v4h-12.3V95.8z"/>
</g>
<g id="XMLID_353_">
</g>
<g id="XMLID_415_">
</g>
<g id="XMLID_416_">
</g>
<g id="XMLID_417_">
</g>
<g id="XMLID_418_">
</g>
<g id="XMLID_419_">
</g>
</svg>
