<?xml version="1.0"?>
<svg xmlns="http://www.w3.org/2000/svg" viewBox="0 0 16 16">
    <path style="line-height:normal;text-indent:0;text-align:start;text-decoration-line:none;text-decoration-style:solid;text-decoration-color:#000;text-transform:none;block-progression:tb;isolation:auto;mix-blend-mode:normal" d="M 2.5 1 A 0.50005 0.50005 0 0 0 2 1.5 L 2 13.5 A 0.50005 0.50005 0 0 0 2.5 14 L 13.5 14 A 0.50005 0.50005 0 0 0 14 13.5 L 14 1.5 A 0.50005 0.50005 0 0 0 13.5 1 L 2.5 1 z M 3 2 L 13 2 L 13 13 L 12 13 C 12 11.418335 11.080916 10.069714 9.7539062 9.4199219 C 10.504248 8.8734212 11 7.9946369 11 7 C 11 5.3490681 9.6509319 4 8 4 C 6.3490681 4 5 5.3490681 5 7 C 5 7.9946369 5.4957522 8.8734212 6.2460938 9.4199219 C 4.9190836 10.069714 4 11.418335 4 13 L 3 13 L 3 2 z M 8 5 C 9.1104918 5 10 5.8895082 10 7 C 10 8.1104918 9.1104918 9 8 9 C 6.8895082 9 6 8.1104918 6 7 C 6 5.8895082 6.8895082 5 8 5 z M 8 10 C 9.6850427 10 11 11.314957 11 13 L 5 13 C 5 11.314957 6.3149573 10 8 10 z" font-weight="400" font-family="sans-serif" white-space="normal" overflow="visible"/>
</svg>
