<?xml version="1.0" encoding="utf-8"?>
<!-- Generator: Adobe Illustrator 19.0.0, SVG Export Plug-In . SVG Version: 6.00 Build 0)  -->
<svg version="1.1" xmlns="http://www.w3.org/2000/svg" xmlns:xlink="http://www.w3.org/1999/xlink" x="0px" y="0px"
	 viewBox="-537 338.8 147.4 116.2" style="enable-background:new -537 338.8 147.4 116.2;" xml:space="preserve">
<style type="text/css">
	.st0{display:none;}
	.st1{display:inline;}
	.st2{fill:#E14040;}
</style>
<g id="Layer_2" class="st0">
	<g id="XMLID_2_" class="st1">
		<path d="M-530.9,342.8h-5.3v-3.9h15.4v3.9h-5.3v15.7h-4.7V342.8z"/>
		<path d="M-499.4,338.9h4.7v7.5h6.5v-7.5h4.7v19.6h-4.7v-8.1h-6.5v8.1h-4.7V338.9z"/>
		<path d="M-460.5,338.9h12.5v3.9h-7.7v3.6h6.6v4h-6.6v4.2h8v4h-12.7V338.9z"/>
		<path class="st2" d="M-529.6,385c-0.9,0-1.7-0.1-2.4-0.4c-0.7-0.2-1.3-0.6-1.8-1s-0.9-0.9-1.2-1.4c-0.3-0.5-0.6-1.1-0.8-1.7
			c-0.2-0.6-0.3-1.2-0.4-1.8c-0.1-0.6-0.1-1.2-0.1-1.7c0-0.5,0-1.1,0.1-1.7c0.1-0.6,0.2-1.2,0.4-1.8s0.4-1.1,0.8-1.6
			c0.3-0.5,0.7-1,1.2-1.4s1.1-0.7,1.8-0.9c0.7-0.2,1.5-0.3,2.4-0.3c1.4,0,2.5,0.2,3.4,0.7c0.9,0.5,1.5,1.1,2,1.9
			c0.5,0.8,0.8,1.6,1,2.5s0.3,1.8,0.3,2.6c0,0.5,0,1.1-0.1,1.7c-0.1,0.6-0.2,1.2-0.4,1.8c-0.2,0.6-0.4,1.1-0.8,1.7
			c-0.3,0.5-0.7,1-1.2,1.4c-0.5,0.4-1.1,0.7-1.8,1C-527.9,384.8-528.7,385-529.6,385z M-529.6,373.6c-0.3,0-0.6,0.1-0.8,0.3
			c-0.2,0.2-0.4,0.5-0.5,0.8s-0.2,0.7-0.2,1.1c0,0.4-0.1,0.8-0.1,1.2c0,0.4,0,0.8,0.1,1.2c0,0.4,0.1,0.8,0.2,1.2
			c0.1,0.4,0.3,0.6,0.5,0.9c0.2,0.2,0.4,0.3,0.8,0.3c0.3,0,0.6-0.1,0.8-0.3c0.2-0.2,0.4-0.5,0.5-0.9c0.1-0.3,0.2-0.7,0.2-1.2
			c0-0.4,0.1-0.8,0.1-1.2c0-0.4,0-0.8-0.1-1.2c0-0.4-0.1-0.8-0.2-1.1s-0.3-0.6-0.5-0.8C-529.1,373.7-529.3,373.6-529.6,373.6z"/>
		<path class="st2" d="M-512.1,375l-2.5,1.7l-2.4-3.7l5.3-3.4h4.6v14.9h-5V375z"/>
		<path class="st2" d="M-497.8,375.9c0-0.4,0.1-0.7,0.2-1c0.1-0.3,0.3-0.6,0.6-0.8c0.2-0.2,0.5-0.4,0.8-0.5c0.3-0.1,0.7-0.2,1-0.2
			c0.3,0,0.7,0.1,1,0.2c0.3,0.1,0.6,0.3,0.8,0.5c0.2,0.2,0.4,0.5,0.6,0.8s0.2,0.6,0.2,1c0,0.4-0.1,0.7-0.2,1
			c-0.1,0.3-0.3,0.6-0.6,0.8c-0.2,0.2-0.5,0.4-0.8,0.5c-0.3,0.1-0.6,0.2-1,0.2c-0.4,0-0.7-0.1-1-0.2c-0.3-0.1-0.6-0.3-0.8-0.5
			c-0.2-0.2-0.4-0.5-0.6-0.8C-497.7,376.6-497.8,376.3-497.8,375.9z M-497.8,382.1c0-0.3,0.1-0.7,0.2-1c0.1-0.3,0.3-0.6,0.6-0.8
			c0.2-0.2,0.5-0.4,0.8-0.5c0.3-0.1,0.7-0.2,1-0.2c0.3,0,0.7,0.1,1,0.2c0.3,0.1,0.6,0.3,0.8,0.5s0.4,0.5,0.6,0.8s0.2,0.6,0.2,1
			c0,0.4-0.1,0.7-0.2,1c-0.1,0.3-0.3,0.6-0.6,0.8s-0.5,0.4-0.8,0.5c-0.3,0.1-0.6,0.2-1,0.2c-0.4,0-0.7-0.1-1-0.2
			c-0.3-0.1-0.6-0.3-0.8-0.5c-0.2-0.2-0.4-0.5-0.6-0.8C-497.7,382.8-497.8,382.5-497.8,382.1z"/>
		<path class="st2" d="M-474.7,384.5h-4.5v-2.6h-7.2v-4.1l5.6-8.2h6v8.3h2v3.9h-2V384.5z M-479.2,374.2l-2.5,3.8h2.6L-479.2,374.2
			L-479.2,374.2z"/>
		<path class="st2" d="M-536.1,394.6h4.3c0.5,0,1,0,1.4,0.1c0.5,0.1,0.9,0.3,1.3,0.5c0.4,0.2,0.7,0.6,0.9,1c0.2,0.4,0.4,0.9,0.4,1.6
			c0,0.6-0.1,1.1-0.4,1.6s-0.7,0.8-1.3,1.1l2.5,4h-3.8l-1.9-3.5h-0.1v3.5h-3.2V394.6z M-532.9,398.8h0.7c0.1,0,0.2,0,0.4,0
			c0.1,0,0.3-0.1,0.4-0.1s0.2-0.1,0.3-0.3s0.1-0.2,0.1-0.4c0-0.2,0-0.3-0.1-0.4c-0.1-0.1-0.1-0.2-0.2-0.2c-0.1-0.1-0.2-0.1-0.3-0.1
			c-0.1,0-0.2,0-0.3,0h-0.8V398.8z"/>
		<path class="st2" d="M-525.1,399.5c0-0.8,0.1-1.5,0.4-2.1c0.3-0.6,0.7-1.2,1.2-1.6c0.5-0.4,1.1-0.8,1.7-1c0.7-0.2,1.4-0.4,2.2-0.4
			s1.5,0.1,2.2,0.4c0.7,0.2,1.3,0.6,1.8,1c0.5,0.4,0.9,1,1.2,1.6c0.3,0.6,0.4,1.4,0.4,2.1c0,0.8-0.1,1.5-0.4,2.2
			c-0.3,0.7-0.7,1.2-1.2,1.7c-0.5,0.5-1.1,0.8-1.8,1.1s-1.4,0.4-2.2,0.4s-1.5-0.1-2.2-0.4s-1.3-0.6-1.7-1.1c-0.5-0.5-0.9-1-1.2-1.7
			S-525.1,400.3-525.1,399.5z M-521.6,399.5c0,0.3,0,0.6,0.1,0.9s0.2,0.5,0.4,0.7c0.2,0.2,0.4,0.3,0.6,0.5s0.5,0.2,0.8,0.2
			s0.5-0.1,0.8-0.2c0.2-0.1,0.4-0.3,0.6-0.5c0.2-0.2,0.3-0.4,0.4-0.7s0.1-0.6,0.1-0.9c0-0.3,0-0.6-0.1-0.9c-0.1-0.3-0.2-0.5-0.4-0.7
			c-0.2-0.2-0.4-0.3-0.6-0.4c-0.2-0.1-0.5-0.2-0.8-0.2s-0.5,0.1-0.8,0.2s-0.5,0.2-0.6,0.4c-0.2,0.2-0.3,0.4-0.4,0.7
			C-521.5,398.9-521.6,399.2-521.6,399.5z"/>
		<path class="st2" d="M-506.9,404.8c-0.8,0-1.4-0.1-2-0.3c-0.6-0.2-1.1-0.5-1.4-0.9c-0.4-0.4-0.7-0.8-0.9-1.3
			c-0.2-0.5-0.3-1.1-0.3-1.6v-6h3.3v5.7c0,0.5,0.1,0.8,0.3,1.1c0.2,0.3,0.6,0.4,1,0.4s0.7-0.1,1-0.4c0.2-0.3,0.3-0.6,0.3-1.1v-5.7
			h3.3v6c0,0.6-0.1,1.1-0.3,1.6c-0.2,0.5-0.5,0.9-0.9,1.3c-0.4,0.4-0.9,0.7-1.5,0.9C-505.4,404.7-506.1,404.8-506.9,404.8z"/>
		<path class="st2" d="M-494.1,404.5h-3.3v-7.1h-2.4v-2.8h8.2v2.8h-2.4V404.5z"/>
		<path class="st2" d="M-489.3,394.6h6.8v2.8h-3.7v0.9h3.5v2.6h-3.5v0.9h3.9v2.8h-7.1V394.6z"/>
		<path class="st2" d="M-533.1,418.9l0.2,5.6h-3.1v-9.9h4.4l1.8,5.3h0.1l1.6-5.3h4.5v9.9h-3.2l0.1-5.6l-0.1,0l-1.8,5.6h-2.4
			L-533.1,418.9L-533.1,418.9z"/>
		<path class="st2" d="M-517.8,414.6h3.5l3.9,9.9h-3.6l-0.5-1.5h-3.1l-0.5,1.5h-3.5L-517.8,414.6z M-516.1,418.1l-0.8,2.5h1.6
			L-516.1,418.1z"/>
		<path class="st2" d="M-508.3,414.6h3.3l2.8,5h0.1l-0.1-5h3.2v9.9h-3.4l-2.7-4.7h-0.1l0.1,4.7h-3.2V414.6z"/>
		<path class="st2" d="M-493.1,414.6h3.5l3.9,9.9h-3.6l-0.5-1.5h-3.1l-0.5,1.5h-3.5L-493.1,414.6z M-491.3,418.1l-0.8,2.5h1.6
			L-491.3,418.1z"/>
		<path class="st2" d="M-478.8,424.8c-0.8,0-1.5-0.1-2.2-0.4c-0.7-0.2-1.2-0.6-1.7-1c-0.5-0.5-0.9-1-1.2-1.6
			c-0.3-0.6-0.4-1.4-0.4-2.2s0.1-1.5,0.4-2.2c0.3-0.6,0.7-1.2,1.1-1.7c0.5-0.5,1.1-0.8,1.7-1.1s1.4-0.4,2.1-0.4
			c0.8,0,1.5,0.1,2.2,0.4c0.7,0.3,1.3,0.6,1.7,1l-1.9,2.3c-0.2-0.2-0.4-0.4-0.7-0.6c-0.3-0.1-0.6-0.2-1-0.2c-0.3,0-0.5,0.1-0.8,0.2
			s-0.5,0.3-0.7,0.5c-0.2,0.2-0.4,0.4-0.5,0.7c-0.1,0.3-0.2,0.6-0.2,0.9c0,0.7,0.2,1.3,0.5,1.7c0.4,0.4,0.9,0.7,1.7,0.7
			c0.1,0,0.3,0,0.4,0c0.1,0,0.3-0.1,0.4-0.1V421h-1.6v-2.6h4.5v5.4c-0.2,0.1-0.5,0.3-0.8,0.4c-0.3,0.1-0.6,0.2-1,0.3
			s-0.7,0.2-1.1,0.2C-478,424.8-478.4,424.8-478.8,424.8z"/>
		<path class="st2" d="M-471.7,414.6h6.8v2.8h-3.7v0.9h3.5v2.6h-3.5v0.9h3.9v2.8h-7.1V414.6z"/>
		<path class="st2" d="M-459,418.9l0.2,5.6h-3.1v-9.9h4.4l1.8,5.3h0.1l1.6-5.3h4.5v9.9h-3.2l0.1-5.6l-0.1,0l-1.8,5.6h-2.4
			L-459,418.9L-459,418.9z"/>
		<path class="st2" d="M-446.4,414.6h6.8v2.8h-3.7v0.9h3.5v2.6h-3.5v0.9h3.9v2.8h-7.1V414.6z"/>
		<path class="st2" d="M-436.6,414.6h3.3l2.8,5h0.1l-0.1-5h3.2v9.9h-3.4l-2.7-4.7h-0.1l0.1,4.7h-3.2V414.6z"/>
		<path class="st2" d="M-419.1,424.5h-3.3v-7.1h-2.4v-2.8h8.2v2.8h-2.4V424.5z"/>
		<path d="M-536.6,434.9h4.8l1.2,8.9l0.8,6.2h0.1c0.4-2.1,0.8-4.2,1.2-6.2l2-8.9h4l2.1,8.9c0.4,2,0.7,4.1,1.1,6.2h0.1
			c0.2-2.1,0.5-4.2,0.7-6.2l1.3-8.9h4.5l-3.4,19.6h-5.9l-1.8-8.5c-0.3-1.5-0.6-3.1-0.8-4.6h-0.1c-0.2,1.5-0.5,3.1-0.8,4.6l-1.7,8.5
			h-5.8L-536.6,434.9z"/>
		<path d="M-496.9,434.9h4.7v7.5h6.5v-7.5h4.7v19.6h-4.7v-8.1h-6.5v8.1h-4.7V434.9z"/>
		<path d="M-463.3,434.9h12.5v3.9h-7.7v3.6h6.6v4h-6.6v4.2h8v4h-12.7V434.9z"/>
		<path d="M-433.5,434.9h12.5v3.9h-7.7v3.6h6.6v4h-6.6v4.2h8v4h-12.7V434.9z"/>
		<path d="M-403.7,434.9h4.7v15.7h7.6v4h-12.3V434.9z"/>
	</g>
</g>
<g id="Layer_1" class="st0">
	<g id="XMLID_1_" class="st1">
		<path id="XMLID_354_" d="M-530.9,343.5h-5.3v-3.9h15.4v3.9h-5.3v15.7h-4.8V343.5z"/>
		<path id="XMLID_356_" d="M-499.4,339.6h4.7v7.5h6.5v-7.5h4.7v19.6h-4.7v-8.1h-6.5v8.1h-4.7V339.6z"/>
		<path id="XMLID_358_" d="M-460.5,339.6h12.5v3.9h-7.7v3.6h6.6v4h-6.6v4.2h8v4h-12.8V339.6z"/>
		<path id="XMLID_360_" class="st2" d="M-529.6,384.7c-0.9,0-1.7-0.1-2.4-0.4c-0.7-0.2-1.3-0.6-1.8-1s-0.9-0.8-1.2-1.4
			c-0.3-0.5-0.6-1.1-0.8-1.7s-0.3-1.2-0.4-1.8c-0.1-0.6-0.1-1.2-0.1-1.7s0-1.1,0.1-1.7c0.1-0.6,0.2-1.2,0.4-1.8s0.4-1.1,0.8-1.6
			c0.3-0.5,0.7-1,1.2-1.4s1.1-0.7,1.8-0.9s1.5-0.3,2.4-0.3c1.4,0,2.5,0.2,3.4,0.7c0.9,0.5,1.5,1.1,2,1.9c0.5,0.8,0.8,1.6,1,2.5
			c0.2,0.9,0.3,1.8,0.3,2.6c0,0.5,0,1.1-0.1,1.7s-0.2,1.2-0.4,1.8c-0.2,0.6-0.4,1.1-0.8,1.7c-0.3,0.5-0.7,1-1.2,1.4
			c-0.5,0.4-1.1,0.7-1.8,1C-527.9,384.5-528.7,384.7-529.6,384.7z M-529.6,373.3c-0.3,0-0.6,0.1-0.8,0.3c-0.2,0.2-0.4,0.5-0.5,0.8
			c-0.1,0.3-0.2,0.7-0.2,1.1c0,0.4-0.1,0.8-0.1,1.2s0,0.8,0.1,1.2c0,0.4,0.1,0.8,0.2,1.2c0.1,0.4,0.3,0.6,0.5,0.9
			c0.2,0.2,0.4,0.3,0.8,0.3c0.3,0,0.6-0.1,0.8-0.3c0.2-0.2,0.4-0.5,0.5-0.9c0.1-0.3,0.2-0.7,0.2-1.2c0-0.4,0.1-0.8,0.1-1.2
			s0-0.8-0.1-1.2c0-0.4-0.1-0.8-0.2-1.1c-0.1-0.3-0.4-0.6-0.6-0.8C-529.1,373.4-529.3,373.3-529.6,373.3z"/>
		<path id="XMLID_363_" class="st2" d="M-512.1,374.7l-2.5,1.7l-2.4-3.7l5.3-3.4h4.7v14.9h-5L-512.1,374.7L-512.1,374.7z"/>
		<path id="XMLID_365_" class="st2" d="M-497.8,375.6c0-0.4,0.1-0.7,0.2-1c0.1-0.3,0.3-0.6,0.6-0.8c0.2-0.2,0.5-0.4,0.8-0.5
			c0.3-0.1,0.7-0.2,1-0.2c0.3,0,0.7,0.1,1,0.2c0.3,0.1,0.6,0.3,0.8,0.5c0.2,0.2,0.4,0.5,0.6,0.8c0.2,0.3,0.2,0.6,0.2,1
			c0,0.4-0.1,0.7-0.2,1c-0.1,0.3-0.3,0.6-0.6,0.8c-0.2,0.2-0.5,0.4-0.8,0.5c-0.3,0.1-0.6,0.2-1,0.2c-0.4,0-0.7-0.1-1-0.2
			c-0.3-0.1-0.6-0.3-0.8-0.5c-0.2-0.2-0.4-0.5-0.6-0.8C-497.7,376.3-497.8,376-497.8,375.6z M-497.8,381.8c0-0.3,0.1-0.7,0.2-1
			s0.3-0.6,0.6-0.8c0.2-0.2,0.5-0.4,0.8-0.5c0.3-0.1,0.7-0.2,1-0.2c0.3,0,0.7,0.1,1,0.2c0.3,0.1,0.6,0.3,0.8,0.5
			c0.2,0.2,0.4,0.5,0.6,0.8c0.2,0.3,0.2,0.6,0.2,1s-0.1,0.7-0.2,1c-0.1,0.3-0.3,0.6-0.6,0.8c-0.3,0.2-0.5,0.4-0.8,0.5
			c-0.3,0.1-0.6,0.2-1,0.2c-0.4,0-0.7-0.1-1-0.2c-0.3-0.1-0.6-0.3-0.8-0.5c-0.2-0.2-0.4-0.5-0.6-0.8
			C-497.7,382.5-497.8,382.2-497.8,381.8z"/>
		<path id="XMLID_368_" class="st2" d="M-474.7,384.2h-4.5v-2.6h-7.2v-4.1l5.6-8.2h6v8.3h2v3.9h-2L-474.7,384.2L-474.7,384.2z
			 M-479.2,373.9l-2.5,3.8h2.6L-479.2,373.9L-479.2,373.9z"/>
		<path id="XMLID_371_" class="st2" d="M-536.1,394.3h4.3c0.5,0,1,0,1.4,0.1c0.5,0.1,0.9,0.3,1.3,0.5c0.4,0.2,0.7,0.6,0.9,1
			s0.4,0.9,0.4,1.6c0,0.6-0.1,1.1-0.4,1.6s-0.8,0.9-1.3,1.1l2.5,4h-3.8l-1.9-3.5h-0.1v3.5h-3.3V394.3z M-532.9,398.5h0.7
			c0.1,0,0.2,0,0.4,0c0.1,0,0.3-0.1,0.4-0.1c0.1,0,0.2-0.1,0.3-0.3c0.1-0.2,0.1-0.2,0.1-0.4c0-0.2,0-0.3-0.1-0.4
			c-0.1-0.1-0.1-0.2-0.2-0.2c-0.1-0.1-0.2-0.1-0.3-0.1c-0.1,0-0.2,0-0.3,0h-1V398.5z"/>
		<path id="XMLID_374_" class="st2" d="M-525.1,399.2c0-0.8,0.1-1.5,0.4-2.1c0.3-0.6,0.7-1.2,1.2-1.6c0.5-0.4,1.1-0.8,1.7-1
			c0.7-0.2,1.4-0.4,2.2-0.4c0.8,0,1.5,0.1,2.2,0.4c0.7,0.2,1.3,0.6,1.8,1c0.5,0.4,0.9,1,1.2,1.6c0.3,0.6,0.4,1.4,0.4,2.1
			c0,0.8-0.1,1.5-0.4,2.2c-0.3,0.7-0.7,1.2-1.2,1.7s-1.1,0.8-1.8,1.1c-0.7,0.3-1.4,0.4-2.2,0.4c-0.8,0-1.5-0.1-2.2-0.4
			c-0.7-0.3-1.3-0.6-1.7-1.1c-0.5-0.5-0.9-1-1.2-1.7C-525,400.7-525.1,400-525.1,399.2z M-521.6,399.2c0,0.3,0,0.6,0.1,0.9
			c0.1,0.3,0.2,0.5,0.4,0.7c0.2,0.2,0.4,0.3,0.6,0.5s0.5,0.2,0.8,0.2s0.5-0.1,0.8-0.2c0.2-0.1,0.4-0.3,0.6-0.5s0.3-0.4,0.4-0.7
			c0.1-0.3,0.1-0.6,0.1-0.9c0-0.3,0-0.6-0.1-0.9c-0.1-0.3-0.2-0.5-0.4-0.7c-0.2-0.2-0.4-0.3-0.6-0.4c-0.2-0.1-0.5-0.2-0.8-0.2
			s-0.5,0.1-0.8,0.2s-0.5,0.2-0.6,0.4c-0.2,0.2-0.3,0.4-0.4,0.7C-521.5,398.6-521.6,398.9-521.6,399.2z"/>
		<path id="XMLID_377_" class="st2" d="M-506.9,404.5c-0.8,0-1.4-0.1-2-0.3c-0.6-0.2-1.1-0.5-1.4-0.9c-0.4-0.4-0.7-0.8-0.9-1.3
			c-0.2-0.5-0.3-1.1-0.3-1.6v-6h3.3v5.7c0,0.5,0.1,0.8,0.3,1.1c0.2,0.3,0.6,0.4,1,0.4s0.7-0.1,1-0.4c0.2-0.3,0.3-0.6,0.3-1.1v-5.7
			h3.3v6c0,0.6-0.1,1.1-0.3,1.6c-0.2,0.5-0.5,0.9-0.9,1.3c-0.4,0.4-0.9,0.7-1.5,0.9C-505.4,404.4-506.1,404.5-506.9,404.5z"/>
		<path id="XMLID_379_" class="st2" d="M-494.1,404.2h-3.3v-7.1h-2.4v-2.8h8.2v2.8h-2.4v7.1H-494.1z"/>
		<path id="XMLID_381_" class="st2" d="M-489.3,394.3h6.8v2.8h-3.7v0.9h3.5v2.6h-3.5v0.9h3.9v2.8h-7.1v-10H-489.3z"/>
		<path id="XMLID_383_" class="st2" d="M-533.1,418.6l0.1,5.6h-3.1v-9.9h4.4l1.8,5.3h0.1l1.6-5.3h4.5v9.9h-3.3l0.1-5.6h-0.1
			l-1.8,5.6h-2.4L-533.1,418.6L-533.1,418.6z"/>
		<path id="XMLID_385_" class="st2" d="M-517.8,414.3h3.5l3.9,9.9h-3.6l-0.5-1.4h-3.1l-0.5,1.5h-3.5L-517.8,414.3z M-516.1,417.8
			l-0.8,2.5h1.6L-516.1,417.8z"/>
		<path id="XMLID_388_" class="st2" d="M-508.3,414.3h3.3l2.8,5h0.1l-0.1-5h3.2v9.9h-3.4l-2.7-4.7h-0.1l0.1,4.7h-3.2
			C-508.3,424.2-508.3,414.3-508.3,414.3z"/>
		<path id="XMLID_390_" class="st2" d="M-493.1,414.3h3.5l3.9,9.9h-3.6l-0.5-1.4h-3.2l-0.5,1.5h-3.5L-493.1,414.3z M-491.3,417.8
			l-0.8,2.5h1.6L-491.3,417.8z"/>
		<path id="XMLID_393_" class="st2" d="M-478.8,424.5c-0.8,0-1.5-0.1-2.2-0.4c-0.7-0.2-1.2-0.6-1.7-1c-0.5-0.5-0.9-1-1.2-1.6
			c-0.3-0.6-0.4-1.4-0.4-2.2s0.1-1.5,0.4-2.2c0.3-0.6,0.7-1.2,1.1-1.7c0.5-0.5,1.1-0.8,1.7-1.1s1.4-0.4,2.1-0.4
			c0.8,0,1.5,0.1,2.2,0.4c0.7,0.3,1.3,0.6,1.7,1l-1.8,2.5c-0.2-0.2-0.4-0.4-0.7-0.6c-0.3-0.1-0.6-0.2-1-0.2c-0.3,0-0.5,0.1-0.8,0.2
			c-0.3,0.1-0.5,0.3-0.7,0.5c-0.2,0.2-0.4,0.4-0.5,0.7c-0.1,0.3-0.2,0.6-0.2,0.9c0,0.7,0.2,1.3,0.5,1.7c0.4,0.4,0.9,0.7,1.7,0.7
			c0.1,0,0.3,0,0.4,0c0.1,0,0.3-0.1,0.4-0.1v-0.8h-1.6v-2.6h4.5v5.4c-0.2,0.1-0.5,0.3-0.8,0.4c-0.3,0.1-0.6,0.2-1,0.3
			c-0.4,0.1-0.7,0.2-1.1,0.2C-478,424.5-478.4,424.5-478.8,424.5z"/>
		<path id="XMLID_395_" class="st2" d="M-471.7,414.3h6.8v2.8h-3.7v0.9h3.5v2.6h-3.5v0.9h3.9v2.8h-7.1L-471.7,414.3L-471.7,414.3z"
			/>
		<path id="XMLID_397_" class="st2" d="M-459,418.6l0.2,5.6h-3.1v-9.9h4.4l1.8,5.3h0.1l1.6-5.3h4.5v9.9h-3.2l0.1-5.6h-0.1l-1.8,5.6
			h-2.4L-459,418.6L-459,418.6z"/>
		<path id="XMLID_399_" class="st2" d="M-446.4,414.3h6.8v2.8h-3.7v0.9h3.5v2.6h-3.5v0.9h3.9v2.8h-7.1v-10H-446.4z"/>
		<path id="XMLID_401_" class="st2" d="M-436.6,414.3h3.3l2.8,5h0.1l-0.1-5h3.2v9.9h-3.4l-2.7-4.7h-0.1l0.1,4.7h-3.2
			C-436.6,424.2-436.6,414.3-436.6,414.3z"/>
		<path id="XMLID_403_" class="st2" d="M-419.1,424.2h-3.3v-7.1h-2.4v-2.8h8.2v2.8h-2.4v7.1H-419.1z"/>
		<path id="XMLID_405_" d="M-536.6,434.6h4.8l1.2,8.9l0.8,6.2h0.1c0.4-2.1,0.8-4.2,1.2-6.2l2-8.9h4l2.1,8.9c0.4,2,0.7,4.1,1.1,6.2
			h0.1c0.2-2.1,0.5-4.2,0.7-6.2l1.3-8.9h4.5l-3.4,19.6h-5.9l-1.8-8.5c-0.3-1.5-0.6-3.1-0.8-4.6h-0.1c-0.2,1.5-0.5,3.1-0.8,4.6
			l-1.7,8.5h-5.8L-536.6,434.6z"/>
		<path id="XMLID_407_" d="M-496.9,434.6h4.7v7.5h6.5v-7.5h4.7v19.6h-4.7v-8.1h-6.5v8.1h-4.7V434.6z"/>
		<path id="XMLID_409_" d="M-463.3,434.6h12.5v3.9h-7.7v3.6h6.5v4h-6.6v4.2h8v4h-12.7V434.6z"/>
		<path id="XMLID_411_" d="M-433.5,434.6h12.5v3.9h-7.7v3.6h6.6v4h-6.6v4.2h8v4h-12.7v-19.7H-433.5z"/>
		<path id="XMLID_413_" d="M-403.7,434.6h4.7v15.7h7.6v4h-12.3V434.6z"/>
	</g>
	<g id="XMLID_353_" class="st1">
	</g>
	<g id="XMLID_415_" class="st1">
	</g>
	<g id="XMLID_416_" class="st1">
	</g>
	<g id="XMLID_417_" class="st1">
	</g>
	<g id="XMLID_418_" class="st1">
	</g>
	<g id="XMLID_419_" class="st1">
	</g>
</g>
<g id="Layer_7" class="st0">
	<g id="XMLID_3_" class="st1">
		<path d="M-530.9,342.8h-5.3v-3.9h15.4v3.9h-5.3v15.7h-4.7V342.8z"/>
		<path d="M-499.4,338.9h4.7v7.5h6.5v-7.5h4.7v19.6h-4.7v-8.1h-6.5v8.1h-4.7V338.9z"/>
		<path d="M-460.5,338.9h12.5v3.9h-7.7v3.6h6.6v4h-6.6v4.2h8v4h-12.7V338.9z"/>
		<path class="st2" d="M-529.6,385c-0.9,0-1.7-0.1-2.4-0.4c-0.7-0.2-1.3-0.6-1.8-1s-0.9-0.9-1.2-1.4c-0.3-0.5-0.6-1.1-0.8-1.7
			c-0.2-0.6-0.3-1.2-0.4-1.8c-0.1-0.6-0.1-1.2-0.1-1.7c0-0.5,0-1.1,0.1-1.7c0.1-0.6,0.2-1.2,0.4-1.8s0.4-1.1,0.8-1.6
			c0.3-0.5,0.7-1,1.2-1.4s1.1-0.7,1.8-0.9c0.7-0.2,1.5-0.3,2.4-0.3c1.4,0,2.5,0.2,3.4,0.7c0.9,0.5,1.5,1.1,2,1.9
			c0.5,0.8,0.8,1.6,1,2.5s0.3,1.8,0.3,2.6c0,0.5,0,1.1-0.1,1.7c-0.1,0.6-0.2,1.2-0.4,1.8c-0.2,0.6-0.4,1.1-0.8,1.7
			c-0.3,0.5-0.7,1-1.2,1.4c-0.5,0.4-1.1,0.7-1.8,1C-527.9,384.8-528.7,385-529.6,385z M-529.6,373.6c-0.3,0-0.6,0.1-0.8,0.3
			c-0.2,0.2-0.4,0.5-0.5,0.8s-0.2,0.7-0.2,1.1c0,0.4-0.1,0.8-0.1,1.2c0,0.4,0,0.8,0.1,1.2c0,0.4,0.1,0.8,0.2,1.2
			c0.1,0.4,0.3,0.6,0.5,0.9c0.2,0.2,0.4,0.3,0.8,0.3c0.3,0,0.6-0.1,0.8-0.3c0.2-0.2,0.4-0.5,0.5-0.9c0.1-0.3,0.2-0.7,0.2-1.2
			c0-0.4,0.1-0.8,0.1-1.2c0-0.4,0-0.8-0.1-1.2c0-0.4-0.1-0.8-0.2-1.1s-0.3-0.6-0.5-0.8C-529.1,373.7-529.3,373.6-529.6,373.6z"/>
		<path class="st2" d="M-512.1,375l-2.5,1.7l-2.4-3.7l5.3-3.4h4.6v14.9h-5V375z"/>
		<path class="st2" d="M-497.8,375.9c0-0.4,0.1-0.7,0.2-1c0.1-0.3,0.3-0.6,0.6-0.8c0.2-0.2,0.5-0.4,0.8-0.5c0.3-0.1,0.7-0.2,1-0.2
			c0.3,0,0.7,0.1,1,0.2c0.3,0.1,0.6,0.3,0.8,0.5c0.2,0.2,0.4,0.5,0.6,0.8s0.2,0.6,0.2,1c0,0.4-0.1,0.7-0.2,1
			c-0.1,0.3-0.3,0.6-0.6,0.8c-0.2,0.2-0.5,0.4-0.8,0.5c-0.3,0.1-0.6,0.2-1,0.2c-0.4,0-0.7-0.1-1-0.2c-0.3-0.1-0.6-0.3-0.8-0.5
			c-0.2-0.2-0.4-0.5-0.6-0.8C-497.7,376.6-497.8,376.3-497.8,375.9z M-497.8,382.1c0-0.3,0.1-0.7,0.2-1c0.1-0.3,0.3-0.6,0.6-0.8
			c0.2-0.2,0.5-0.4,0.8-0.5c0.3-0.1,0.7-0.2,1-0.2c0.3,0,0.7,0.1,1,0.2c0.3,0.1,0.6,0.3,0.8,0.5s0.4,0.5,0.6,0.8s0.2,0.6,0.2,1
			c0,0.4-0.1,0.7-0.2,1c-0.1,0.3-0.3,0.6-0.6,0.8s-0.5,0.4-0.8,0.5c-0.3,0.1-0.6,0.2-1,0.2c-0.4,0-0.7-0.1-1-0.2
			c-0.3-0.1-0.6-0.3-0.8-0.5c-0.2-0.2-0.4-0.5-0.6-0.8C-497.7,382.8-497.8,382.5-497.8,382.1z"/>
		<path class="st2" d="M-481,375l-2.5,1.7l-2.4-3.7l5.3-3.4h4.6v14.9h-5V375z"/>
		<path class="st2" d="M-533.1,398.9l0.2,5.6h-3.1v-9.9h4.4l1.8,5.3h0.1l1.6-5.3h4.5v9.9h-3.2l0.1-5.6l-0.1,0l-1.8,5.6h-2.4
			L-533.1,398.9L-533.1,398.9z"/>
		<path class="st2" d="M-520.6,394.6h6.8v2.8h-3.7v0.9h3.5v2.6h-3.5v0.9h3.9v2.8h-7.1V394.6z"/>
		<path class="st2" d="M-507.8,398.9l0.2,5.6h-3.1v-9.9h4.4l1.8,5.3h0.1l1.6-5.3h4.5v9.9h-3.2l0.1-5.6l-0.1,0l-1.8,5.6h-2.4
			L-507.8,398.9L-507.8,398.9z"/>
		<path class="st2" d="M-488.7,399.4c0.2,0.1,0.5,0.1,0.7,0.3c0.2,0.1,0.4,0.3,0.6,0.5s0.3,0.4,0.4,0.7c0.1,0.3,0.2,0.5,0.2,0.8
			c0,0.5-0.1,1-0.3,1.4c-0.2,0.4-0.5,0.7-0.9,0.9c-0.4,0.2-0.8,0.4-1.2,0.5c-0.5,0.1-0.9,0.1-1.4,0.1h-4.5v-9.9h4.1
			c0.4,0,0.8,0,1.3,0.1c0.5,0.1,0.9,0.2,1.3,0.4c0.4,0.2,0.7,0.4,1,0.8c0.3,0.4,0.4,0.8,0.4,1.4c0,0.5-0.1,1-0.4,1.3
			C-487.9,398.9-488.3,399.2-488.7,399.4L-488.7,399.4z M-492.1,397.2v1.2h0.9c0.2,0,0.4-0.1,0.6-0.2c0.1-0.1,0.2-0.3,0.2-0.5
			c0-0.2-0.1-0.3-0.2-0.4c-0.2-0.1-0.4-0.1-0.6-0.1H-492.1z M-492.1,400.6v1.3h1c0.3,0,0.5-0.1,0.6-0.2c0.2-0.1,0.2-0.3,0.2-0.5
			c0-0.1,0-0.2-0.1-0.3c-0.1-0.1-0.2-0.2-0.3-0.2c-0.1-0.1-0.2-0.1-0.3-0.1c-0.1,0-0.2,0-0.3,0H-492.1z"/>
		<path class="st2" d="M-484.1,394.6h6.8v2.8h-3.7v0.9h3.5v2.6h-3.5v0.9h3.9v2.8h-7.1V394.6z"/>
		<path class="st2" d="M-474.3,394.6h4.3c0.5,0,1,0,1.4,0.1c0.5,0.1,0.9,0.3,1.3,0.5c0.4,0.2,0.7,0.6,0.9,1c0.2,0.4,0.4,0.9,0.4,1.6
			c0,0.6-0.1,1.1-0.4,1.6s-0.7,0.8-1.3,1.1l2.5,4h-3.8l-1.9-3.5h-0.1v3.5h-3.2V394.6z M-471.1,398.8h0.7c0.1,0,0.2,0,0.4,0
			c0.1,0,0.3-0.1,0.4-0.1s0.2-0.1,0.3-0.3s0.1-0.2,0.1-0.4c0-0.2,0-0.3-0.1-0.4c-0.1-0.1-0.1-0.2-0.2-0.2c-0.1-0.1-0.2-0.1-0.3-0.1
			c-0.1,0-0.2,0-0.3,0h-0.8V398.8z"/>
		<path class="st2" d="M-459.6,404.8c-0.4,0-0.8,0-1.2-0.1c-0.4-0.1-0.8-0.2-1.1-0.3c-0.4-0.1-0.7-0.3-1-0.5
			c-0.3-0.2-0.6-0.4-0.9-0.6l2-2.2c0.2,0.3,0.5,0.5,0.9,0.7c0.4,0.2,0.8,0.3,1.2,0.3c0.2,0,0.4,0,0.5-0.1c0.2-0.1,0.2-0.2,0.2-0.4
			c0-0.1,0-0.2-0.1-0.2c-0.1-0.1-0.1-0.1-0.3-0.2c-0.1-0.1-0.3-0.1-0.5-0.2s-0.5-0.2-0.9-0.3c-0.3-0.1-0.7-0.2-1-0.4
			c-0.3-0.2-0.6-0.3-0.8-0.6c-0.2-0.2-0.4-0.5-0.6-0.8c-0.1-0.3-0.2-0.7-0.2-1.1c0-0.6,0.1-1.1,0.4-1.6s0.6-0.8,1-1.1
			c0.4-0.3,0.8-0.5,1.3-0.6c0.5-0.1,1-0.2,1.5-0.2c0.7,0,1.3,0.1,2,0.4c0.7,0.3,1.3,0.6,1.8,1.1l-2.1,2.1c-0.2-0.3-0.5-0.5-0.8-0.6
			c-0.3-0.1-0.6-0.2-0.9-0.2c-0.2,0-0.4,0-0.6,0.1c-0.1,0.1-0.2,0.2-0.2,0.3c0,0.1,0.1,0.3,0.2,0.3c0.2,0.1,0.4,0.2,0.7,0.3
			c0.4,0.1,0.7,0.2,1.1,0.4c0.4,0.1,0.8,0.3,1.1,0.6c0.3,0.2,0.6,0.5,0.8,0.9c0.2,0.3,0.3,0.8,0.3,1.3c0,0.6-0.1,1.1-0.4,1.6
			c-0.2,0.4-0.6,0.8-0.9,1.1c-0.4,0.3-0.8,0.5-1.3,0.7S-459.1,404.8-459.6,404.8z"/>
		<path class="st2" d="M-533.1,418.9l0.2,5.6h-3.1v-9.9h4.4l1.8,5.3h0.1l1.6-5.3h4.5v9.9h-3.2l0.1-5.6l-0.1,0l-1.8,5.6h-2.4
			L-533.1,418.9L-533.1,418.9z"/>
		<path class="st2" d="M-517.8,414.6h3.5l3.9,9.9h-3.6l-0.5-1.5h-3.1l-0.5,1.5h-3.5L-517.8,414.6z M-516.1,418.1l-0.8,2.5h1.6
			L-516.1,418.1z"/>
		<path class="st2" d="M-508.3,414.6h3.3l2.8,5h0.1l-0.1-5h3.2v9.9h-3.4l-2.7-4.7h-0.1l0.1,4.7h-3.2V414.6z"/>
		<path class="st2" d="M-493.1,414.6h3.5l3.9,9.9h-3.6l-0.5-1.5h-3.1l-0.5,1.5h-3.5L-493.1,414.6z M-491.3,418.1l-0.8,2.5h1.6
			L-491.3,418.1z"/>
		<path class="st2" d="M-478.8,424.8c-0.8,0-1.5-0.1-2.2-0.4c-0.7-0.2-1.2-0.6-1.7-1c-0.5-0.5-0.9-1-1.2-1.6
			c-0.3-0.6-0.4-1.4-0.4-2.2s0.1-1.5,0.4-2.2c0.3-0.6,0.7-1.2,1.1-1.7c0.5-0.5,1.1-0.8,1.7-1.1s1.4-0.4,2.1-0.4
			c0.8,0,1.5,0.1,2.2,0.4c0.7,0.3,1.3,0.6,1.7,1l-1.9,2.3c-0.2-0.2-0.4-0.4-0.7-0.6c-0.3-0.1-0.6-0.2-1-0.2c-0.3,0-0.5,0.1-0.8,0.2
			s-0.5,0.3-0.7,0.5c-0.2,0.2-0.4,0.4-0.5,0.7c-0.1,0.3-0.2,0.6-0.2,0.9c0,0.7,0.2,1.3,0.5,1.7c0.4,0.4,0.9,0.7,1.7,0.7
			c0.1,0,0.3,0,0.4,0c0.1,0,0.3-0.1,0.4-0.1V421h-1.6v-2.6h4.5v5.4c-0.2,0.1-0.5,0.3-0.8,0.4c-0.3,0.1-0.6,0.2-1,0.3
			s-0.7,0.2-1.1,0.2C-478,424.8-478.4,424.8-478.8,424.8z"/>
		<path class="st2" d="M-471.7,414.6h6.8v2.8h-3.7v0.9h3.5v2.6h-3.5v0.9h3.9v2.8h-7.1V414.6z"/>
		<path class="st2" d="M-459,418.9l0.2,5.6h-3.1v-9.9h4.4l1.8,5.3h0.1l1.6-5.3h4.5v9.9h-3.2l0.1-5.6l-0.1,0l-1.8,5.6h-2.4
			L-459,418.9L-459,418.9z"/>
		<path class="st2" d="M-446.4,414.6h6.8v2.8h-3.7v0.9h3.5v2.6h-3.5v0.9h3.9v2.8h-7.1V414.6z"/>
		<path class="st2" d="M-436.6,414.6h3.3l2.8,5h0.1l-0.1-5h3.2v9.9h-3.4l-2.7-4.7h-0.1l0.1,4.7h-3.2V414.6z"/>
		<path class="st2" d="M-419.1,424.5h-3.3v-7.1h-2.4v-2.8h8.2v2.8h-2.4V424.5z"/>
		<path d="M-536.6,434.9h4.8l1.2,8.9l0.8,6.2h0.1c0.4-2.1,0.8-4.2,1.2-6.2l2-8.9h4l2.1,8.9c0.4,2,0.7,4.1,1.1,6.2h0.1
			c0.2-2.1,0.5-4.2,0.7-6.2l1.3-8.9h4.5l-3.4,19.6h-5.9l-1.8-8.5c-0.3-1.5-0.6-3.1-0.8-4.6h-0.1c-0.2,1.5-0.5,3.1-0.8,4.6l-1.7,8.5
			h-5.8L-536.6,434.9z"/>
		<path d="M-496.9,434.9h4.7v7.5h6.5v-7.5h4.7v19.6h-4.7v-8.1h-6.5v8.1h-4.7V434.9z"/>
		<path d="M-463.3,434.9h12.5v3.9h-7.7v3.6h6.6v4h-6.6v4.2h8v4h-12.7V434.9z"/>
		<path d="M-433.5,434.9h12.5v3.9h-7.7v3.6h6.6v4h-6.6v4.2h8v4h-12.7V434.9z"/>
		<path d="M-403.7,434.9h4.7v15.7h7.6v4h-12.3V434.9z"/>
	</g>
</g>
<g id="Layer_3" class="st0">
	<g id="XMLID_4_" class="st1">
		<path d="M-530.9,342.8h-5.3v-3.9h15.4v3.9h-5.3v15.7h-4.7V342.8z"/>
		<path d="M-499.4,338.9h4.7v7.5h6.5v-7.5h4.7v19.6h-4.7v-8.1h-6.5v8.1h-4.7V338.9z"/>
		<path d="M-460.5,338.9h12.5v3.9h-7.7v3.6h6.6v4h-6.6v4.2h8v4h-12.7V338.9z"/>
		<path class="st2" d="M-529.6,385c-0.9,0-1.7-0.1-2.4-0.4c-0.7-0.2-1.3-0.6-1.8-1s-0.9-0.9-1.2-1.4c-0.3-0.5-0.6-1.1-0.8-1.7
			c-0.2-0.6-0.3-1.2-0.4-1.8c-0.1-0.6-0.1-1.2-0.1-1.7c0-0.5,0-1.1,0.1-1.7c0.1-0.6,0.2-1.2,0.4-1.8s0.4-1.1,0.8-1.6
			c0.3-0.5,0.7-1,1.2-1.4s1.1-0.7,1.8-0.9c0.7-0.2,1.5-0.3,2.4-0.3c1.4,0,2.5,0.2,3.4,0.7c0.9,0.5,1.5,1.1,2,1.9
			c0.5,0.8,0.8,1.6,1,2.5s0.3,1.8,0.3,2.6c0,0.5,0,1.1-0.1,1.7c-0.1,0.6-0.2,1.2-0.4,1.8c-0.2,0.6-0.4,1.1-0.8,1.7
			c-0.3,0.5-0.7,1-1.2,1.4c-0.5,0.4-1.1,0.7-1.8,1C-527.9,384.8-528.7,385-529.6,385z M-529.6,373.6c-0.3,0-0.6,0.1-0.8,0.3
			c-0.2,0.2-0.4,0.5-0.5,0.8s-0.2,0.7-0.2,1.1c0,0.4-0.1,0.8-0.1,1.2c0,0.4,0,0.8,0.1,1.2c0,0.4,0.1,0.8,0.2,1.2
			c0.1,0.4,0.3,0.6,0.5,0.9c0.2,0.2,0.4,0.3,0.8,0.3c0.3,0,0.6-0.1,0.8-0.3c0.2-0.2,0.4-0.5,0.5-0.9c0.1-0.3,0.2-0.7,0.2-1.2
			c0-0.4,0.1-0.8,0.1-1.2c0-0.4,0-0.8-0.1-1.2c0-0.4-0.1-0.8-0.2-1.1s-0.3-0.6-0.5-0.8C-529.1,373.7-529.3,373.6-529.6,373.6z"/>
		<path class="st2" d="M-512.1,375l-2.5,1.7l-2.4-3.7l5.3-3.4h4.6v14.9h-5V375z"/>
		<path class="st2" d="M-497.8,375.9c0-0.4,0.1-0.7,0.2-1c0.1-0.3,0.3-0.6,0.6-0.8c0.2-0.2,0.5-0.4,0.8-0.5c0.3-0.1,0.7-0.2,1-0.2
			c0.3,0,0.7,0.1,1,0.2c0.3,0.1,0.6,0.3,0.8,0.5c0.2,0.2,0.4,0.5,0.6,0.8s0.2,0.6,0.2,1c0,0.4-0.1,0.7-0.2,1
			c-0.1,0.3-0.3,0.6-0.6,0.8c-0.2,0.2-0.5,0.4-0.8,0.5c-0.3,0.1-0.6,0.2-1,0.2c-0.4,0-0.7-0.1-1-0.2c-0.3-0.1-0.6-0.3-0.8-0.5
			c-0.2-0.2-0.4-0.5-0.6-0.8C-497.7,376.6-497.8,376.3-497.8,375.9z M-497.8,382.1c0-0.3,0.1-0.7,0.2-1c0.1-0.3,0.3-0.6,0.6-0.8
			c0.2-0.2,0.5-0.4,0.8-0.5c0.3-0.1,0.7-0.2,1-0.2c0.3,0,0.7,0.1,1,0.2c0.3,0.1,0.6,0.3,0.8,0.5s0.4,0.5,0.6,0.8s0.2,0.6,0.2,1
			c0,0.4-0.1,0.7-0.2,1c-0.1,0.3-0.3,0.6-0.6,0.8s-0.5,0.4-0.8,0.5c-0.3,0.1-0.6,0.2-1,0.2c-0.4,0-0.7-0.1-1-0.2
			c-0.3-0.1-0.6-0.3-0.8-0.5c-0.2-0.2-0.4-0.5-0.6-0.8C-497.7,382.8-497.8,382.5-497.8,382.1z"/>
		<path class="st2" d="M-479.8,375.9c0.2-0.2,0.4-0.4,0.6-0.6c0.2-0.2,0.2-0.5,0.2-0.7c0-0.3-0.1-0.5-0.3-0.7
			c-0.2-0.2-0.5-0.3-0.8-0.3c-0.4,0-0.7,0.2-1,0.5c-0.3,0.3-0.4,0.8-0.4,1.3l-4.8-0.5c0.1-1,0.4-1.8,0.8-2.5
			c0.4-0.7,0.9-1.3,1.5-1.7c0.6-0.5,1.3-0.8,2-1c0.7-0.2,1.5-0.3,2.3-0.3c0.7,0,1.5,0.1,2.2,0.3c0.7,0.2,1.4,0.5,1.9,0.9
			c0.6,0.4,1,0.9,1.4,1.5c0.3,0.6,0.5,1.4,0.5,2.2c0,0.6-0.1,1.2-0.2,1.6c-0.2,0.5-0.4,0.9-0.7,1.2c-0.3,0.4-0.6,0.7-0.9,1
			c-0.3,0.3-0.7,0.6-1.1,0.8l-2.2,1.6h5.1v4.2h-12.1v-3.9L-479.8,375.9z"/>
		<path class="st2" d="M-532.8,401.3v3.2h-3.3v-9.9h4.3c0.5,0,1,0.1,1.5,0.2s0.9,0.3,1.3,0.5c0.4,0.3,0.7,0.6,0.9,1
			c0.2,0.4,0.4,1,0.4,1.6c0,0.6-0.1,1.1-0.3,1.6c-0.2,0.4-0.5,0.8-0.9,1.1c-0.4,0.3-0.8,0.5-1.3,0.6c-0.5,0.1-1,0.2-1.5,0.2H-532.8z
			 M-532.8,397.2v1.6h0.7c0.3,0,0.5-0.1,0.7-0.2c0.2-0.1,0.3-0.3,0.3-0.6c0-0.2,0-0.3-0.1-0.4c-0.1-0.1-0.1-0.2-0.2-0.2
			c-0.1-0.1-0.2-0.1-0.3-0.1c-0.1,0-0.2,0-0.4,0H-532.8z"/>
		<path class="st2" d="M-525.1,394.6h4.3c0.5,0,1,0,1.4,0.1c0.5,0.1,0.9,0.3,1.3,0.5c0.4,0.2,0.7,0.6,0.9,1c0.2,0.4,0.4,0.9,0.4,1.6
			c0,0.6-0.1,1.1-0.4,1.6s-0.7,0.8-1.3,1.1l2.5,4h-3.8l-1.9-3.5h-0.1v3.5h-3.2V394.6z M-521.9,398.8h0.7c0.1,0,0.2,0,0.4,0
			c0.1,0,0.3-0.1,0.4-0.1s0.2-0.1,0.3-0.3s0.1-0.2,0.1-0.4c0-0.2,0-0.3-0.1-0.4c-0.1-0.1-0.1-0.2-0.2-0.2c-0.1-0.1-0.2-0.1-0.3-0.1
			c-0.1,0-0.2,0-0.3,0h-0.8V398.8z"/>
		<path class="st2" d="M-514.2,399.5c0-0.8,0.1-1.5,0.4-2.1c0.3-0.6,0.7-1.2,1.2-1.6c0.5-0.4,1.1-0.8,1.7-1c0.7-0.2,1.4-0.4,2.2-0.4
			s1.5,0.1,2.2,0.4c0.7,0.2,1.3,0.6,1.8,1c0.5,0.4,0.9,1,1.2,1.6c0.3,0.6,0.4,1.4,0.4,2.1c0,0.8-0.1,1.5-0.4,2.2
			c-0.3,0.7-0.7,1.2-1.2,1.7c-0.5,0.5-1.1,0.8-1.8,1.1s-1.4,0.4-2.2,0.4s-1.5-0.1-2.2-0.4s-1.3-0.6-1.7-1.1c-0.5-0.5-0.9-1-1.2-1.7
			S-514.2,400.3-514.2,399.5z M-510.6,399.5c0,0.3,0,0.6,0.1,0.9s0.2,0.5,0.4,0.7c0.2,0.2,0.4,0.3,0.6,0.5s0.5,0.2,0.8,0.2
			s0.5-0.1,0.8-0.2c0.2-0.1,0.4-0.3,0.6-0.5c0.2-0.2,0.3-0.4,0.4-0.7s0.1-0.6,0.1-0.9c0-0.3,0-0.6-0.1-0.9c-0.1-0.3-0.2-0.5-0.4-0.7
			c-0.2-0.2-0.4-0.3-0.6-0.4c-0.2-0.1-0.5-0.2-0.8-0.2s-0.5,0.1-0.8,0.2s-0.5,0.2-0.6,0.4c-0.2,0.2-0.3,0.4-0.4,0.7
			C-510.6,398.9-510.6,399.2-510.6,399.5z"/>
		<path class="st2" d="M-495.3,404.8c-0.8,0-1.5-0.1-2.2-0.4c-0.7-0.2-1.2-0.6-1.7-1c-0.5-0.5-0.9-1-1.2-1.6
			c-0.3-0.6-0.4-1.4-0.4-2.2s0.1-1.5,0.4-2.2s0.7-1.2,1.1-1.7c0.5-0.5,1.1-0.8,1.7-1.1c0.7-0.2,1.4-0.4,2.1-0.4
			c0.8,0,1.5,0.1,2.2,0.4c0.7,0.3,1.3,0.6,1.7,1l-1.9,2.3c-0.2-0.2-0.4-0.4-0.7-0.6c-0.3-0.1-0.6-0.2-1-0.2c-0.3,0-0.5,0.1-0.8,0.2
			c-0.3,0.1-0.5,0.3-0.7,0.5c-0.2,0.2-0.4,0.4-0.5,0.7c-0.1,0.3-0.2,0.6-0.2,0.9c0,0.7,0.2,1.3,0.5,1.7c0.4,0.4,0.9,0.7,1.7,0.7
			c0.1,0,0.3,0,0.4,0c0.1,0,0.3-0.1,0.4-0.1V401h-1.6v-2.6h4.5v5.4c-0.2,0.1-0.5,0.3-0.8,0.4c-0.3,0.1-0.6,0.2-1,0.3
			s-0.7,0.2-1.1,0.2C-494.5,404.8-494.9,404.8-495.3,404.8z"/>
		<path class="st2" d="M-488.3,394.6h4.3c0.5,0,1,0,1.4,0.1c0.5,0.1,0.9,0.3,1.3,0.5c0.4,0.2,0.7,0.6,0.9,1c0.2,0.4,0.4,0.9,0.4,1.6
			c0,0.6-0.1,1.1-0.4,1.6s-0.7,0.8-1.3,1.1l2.5,4h-3.8l-1.9-3.5h-0.1v3.5h-3.2V394.6z M-485.1,398.8h0.7c0.1,0,0.2,0,0.4,0
			c0.1,0,0.3-0.1,0.4-0.1s0.2-0.1,0.3-0.3s0.1-0.2,0.1-0.4c0-0.2,0-0.3-0.1-0.4c-0.1-0.1-0.1-0.2-0.2-0.2c-0.1-0.1-0.2-0.1-0.3-0.1
			c-0.1,0-0.2,0-0.3,0h-0.8V398.8z"/>
		<path class="st2" d="M-474.1,394.6h3.5l3.9,9.9h-3.6l-0.5-1.5h-3.1l-0.5,1.5h-3.5L-474.1,394.6z M-472.4,398.1l-0.8,2.5h1.6
			L-472.4,398.1z"/>
		<path class="st2" d="M-461.7,398.9l0.2,5.6h-3.1v-9.9h4.4l1.8,5.3h0.1l1.6-5.3h4.5v9.9h-3.2l0.1-5.6l-0.1,0l-1.8,5.6h-2.4
			L-461.7,398.9L-461.7,398.9z"/>
		<path class="st2" d="M-533.1,418.9l0.2,5.6h-3.1v-9.9h4.4l1.8,5.3h0.1l1.6-5.3h4.5v9.9h-3.2l0.1-5.6l-0.1,0l-1.8,5.6h-2.4
			L-533.1,418.9L-533.1,418.9z"/>
		<path class="st2" d="M-517.8,414.6h3.5l3.9,9.9h-3.6l-0.5-1.5h-3.1l-0.5,1.5h-3.5L-517.8,414.6z M-516.1,418.1l-0.8,2.5h1.6
			L-516.1,418.1z"/>
		<path class="st2" d="M-508.3,414.6h3.3l2.8,5h0.1l-0.1-5h3.2v9.9h-3.4l-2.7-4.7h-0.1l0.1,4.7h-3.2V414.6z"/>
		<path class="st2" d="M-493.1,414.6h3.5l3.9,9.9h-3.6l-0.5-1.5h-3.1l-0.5,1.5h-3.5L-493.1,414.6z M-491.3,418.1l-0.8,2.5h1.6
			L-491.3,418.1z"/>
		<path class="st2" d="M-478.8,424.8c-0.8,0-1.5-0.1-2.2-0.4c-0.7-0.2-1.2-0.6-1.7-1c-0.5-0.5-0.9-1-1.2-1.6
			c-0.3-0.6-0.4-1.4-0.4-2.2s0.1-1.5,0.4-2.2c0.3-0.6,0.7-1.2,1.1-1.7c0.5-0.5,1.1-0.8,1.7-1.1s1.4-0.4,2.1-0.4
			c0.8,0,1.5,0.1,2.2,0.4c0.7,0.3,1.3,0.6,1.7,1l-1.9,2.3c-0.2-0.2-0.4-0.4-0.7-0.6c-0.3-0.1-0.6-0.2-1-0.2c-0.3,0-0.5,0.1-0.8,0.2
			s-0.5,0.3-0.7,0.5c-0.2,0.2-0.4,0.4-0.5,0.7c-0.1,0.3-0.2,0.6-0.2,0.9c0,0.7,0.2,1.3,0.5,1.7c0.4,0.4,0.9,0.7,1.7,0.7
			c0.1,0,0.3,0,0.4,0c0.1,0,0.3-0.1,0.4-0.1V421h-1.6v-2.6h4.5v5.4c-0.2,0.1-0.5,0.3-0.8,0.4c-0.3,0.1-0.6,0.2-1,0.3
			s-0.7,0.2-1.1,0.2C-478,424.8-478.4,424.8-478.8,424.8z"/>
		<path class="st2" d="M-471.7,414.6h6.8v2.8h-3.7v0.9h3.5v2.6h-3.5v0.9h3.9v2.8h-7.1V414.6z"/>
		<path class="st2" d="M-459,418.9l0.2,5.6h-3.1v-9.9h4.4l1.8,5.3h0.1l1.6-5.3h4.5v9.9h-3.2l0.1-5.6l-0.1,0l-1.8,5.6h-2.4
			L-459,418.9L-459,418.9z"/>
		<path class="st2" d="M-446.4,414.6h6.8v2.8h-3.7v0.9h3.5v2.6h-3.5v0.9h3.9v2.8h-7.1V414.6z"/>
		<path class="st2" d="M-436.6,414.6h3.3l2.8,5h0.1l-0.1-5h3.2v9.9h-3.4l-2.7-4.7h-0.1l0.1,4.7h-3.2V414.6z"/>
		<path class="st2" d="M-419.1,424.5h-3.3v-7.1h-2.4v-2.8h8.2v2.8h-2.4V424.5z"/>
		<path d="M-536.6,434.9h4.8l1.2,8.9l0.8,6.2h0.1c0.4-2.1,0.8-4.2,1.2-6.2l2-8.9h4l2.1,8.9c0.4,2,0.7,4.1,1.1,6.2h0.1
			c0.2-2.1,0.5-4.2,0.7-6.2l1.3-8.9h4.5l-3.4,19.6h-5.9l-1.8-8.5c-0.3-1.5-0.6-3.1-0.8-4.6h-0.1c-0.2,1.5-0.5,3.1-0.8,4.6l-1.7,8.5
			h-5.8L-536.6,434.9z"/>
		<path d="M-496.9,434.9h4.7v7.5h6.5v-7.5h4.7v19.6h-4.7v-8.1h-6.5v8.1h-4.7V434.9z"/>
		<path d="M-463.3,434.9h12.5v3.9h-7.7v3.6h6.6v4h-6.6v4.2h8v4h-12.7V434.9z"/>
		<path d="M-433.5,434.9h12.5v3.9h-7.7v3.6h6.6v4h-6.6v4.2h8v4h-12.7V434.9z"/>
		<path d="M-403.7,434.9h4.7v15.7h7.6v4h-12.3V434.9z"/>
	</g>
</g>
<g id="Layer_4">
	<g id="XMLID_5_">
		<path d="M-530.9,342.8h-5.3v-3.9h15.4v3.9h-5.3v15.7h-4.7V342.8z"/>
		<path d="M-499.4,338.9h4.7v7.5h6.5v-7.5h4.7v19.6h-4.7v-8.1h-6.5v8.1h-4.7V338.9z"/>
		<path d="M-460.5,338.9h12.5v3.9h-7.7v3.6h6.6v4h-6.6v4.2h8v4h-12.7V338.9z"/>
		<path class="st2" d="M-529.6,385c-0.9,0-1.7-0.1-2.4-0.4c-0.7-0.2-1.3-0.6-1.8-1s-0.9-0.9-1.2-1.4c-0.3-0.5-0.6-1.1-0.8-1.7
			c-0.2-0.6-0.3-1.2-0.4-1.8c-0.1-0.6-0.1-1.2-0.1-1.7c0-0.5,0-1.1,0.1-1.7c0.1-0.6,0.2-1.2,0.4-1.8s0.4-1.1,0.8-1.6
			c0.3-0.5,0.7-1,1.2-1.4s1.1-0.7,1.8-0.9c0.7-0.2,1.5-0.3,2.4-0.3c1.4,0,2.5,0.2,3.4,0.7c0.9,0.5,1.5,1.1,2,1.9
			c0.5,0.8,0.8,1.6,1,2.5s0.3,1.8,0.3,2.6c0,0.5,0,1.1-0.1,1.7c-0.1,0.6-0.2,1.2-0.4,1.8c-0.2,0.6-0.4,1.1-0.8,1.7
			c-0.3,0.5-0.7,1-1.2,1.4c-0.5,0.4-1.1,0.7-1.8,1C-527.9,384.8-528.7,385-529.6,385z M-529.6,373.6c-0.3,0-0.6,0.1-0.8,0.3
			c-0.2,0.2-0.4,0.5-0.5,0.8s-0.2,0.7-0.2,1.1c0,0.4-0.1,0.8-0.1,1.2c0,0.4,0,0.8,0.1,1.2c0,0.4,0.1,0.8,0.2,1.2
			c0.1,0.4,0.3,0.6,0.5,0.9c0.2,0.2,0.4,0.3,0.8,0.3c0.3,0,0.6-0.1,0.8-0.3c0.2-0.2,0.4-0.5,0.5-0.9c0.1-0.3,0.2-0.7,0.2-1.2
			c0-0.4,0.1-0.8,0.1-1.2c0-0.4,0-0.8-0.1-1.2c0-0.4-0.1-0.8-0.2-1.1s-0.3-0.6-0.5-0.8C-529.1,373.7-529.3,373.6-529.6,373.6z"/>
		<path class="st2" d="M-512.1,375l-2.5,1.7l-2.4-3.7l5.3-3.4h4.6v14.9h-5V375z"/>
		<path class="st2" d="M-497.8,375.9c0-0.4,0.1-0.7,0.2-1c0.1-0.3,0.3-0.6,0.6-0.8c0.2-0.2,0.5-0.4,0.8-0.5c0.3-0.1,0.7-0.2,1-0.2
			c0.3,0,0.7,0.1,1,0.2c0.3,0.1,0.6,0.3,0.8,0.5c0.2,0.2,0.4,0.5,0.6,0.8s0.2,0.6,0.2,1c0,0.4-0.1,0.7-0.2,1
			c-0.1,0.3-0.3,0.6-0.6,0.8c-0.2,0.2-0.5,0.4-0.8,0.5c-0.3,0.1-0.6,0.2-1,0.2c-0.4,0-0.7-0.1-1-0.2c-0.3-0.1-0.6-0.3-0.8-0.5
			c-0.2-0.2-0.4-0.5-0.6-0.8C-497.7,376.6-497.8,376.3-497.8,375.9z M-497.8,382.1c0-0.3,0.1-0.7,0.2-1c0.1-0.3,0.3-0.6,0.6-0.8
			c0.2-0.2,0.5-0.4,0.8-0.5c0.3-0.1,0.7-0.2,1-0.2c0.3,0,0.7,0.1,1,0.2c0.3,0.1,0.6,0.3,0.8,0.5s0.4,0.5,0.6,0.8s0.2,0.6,0.2,1
			c0,0.4-0.1,0.7-0.2,1c-0.1,0.3-0.3,0.6-0.6,0.8s-0.5,0.4-0.8,0.5c-0.3,0.1-0.6,0.2-1,0.2c-0.4,0-0.7-0.1-1-0.2
			c-0.3-0.1-0.6-0.3-0.8-0.5c-0.2-0.2-0.4-0.5-0.6-0.8C-497.7,382.8-497.8,382.5-497.8,382.1z"/>
		<path class="st2" d="M-475.8,376.7c0.4,0.1,0.7,0.3,1,0.5c0.3,0.2,0.6,0.5,0.8,0.8c0.2,0.3,0.4,0.6,0.5,1c0.1,0.3,0.2,0.7,0.2,1
			c0,0.9-0.2,1.6-0.5,2.2c-0.4,0.6-0.8,1.1-1.4,1.5c-0.6,0.4-1.3,0.7-2,0.9c-0.7,0.2-1.5,0.3-2.2,0.3s-1.5-0.1-2.2-0.3
			c-0.7-0.2-1.4-0.5-2-0.8s-1.1-0.9-1.6-1.4c-0.5-0.6-0.8-1.3-1-2.1l4.7-1.1c0.1,0.4,0.3,0.7,0.6,1c0.3,0.3,0.8,0.5,1.3,0.5
			c0.1,0,0.3,0,0.4-0.1c0.2,0,0.3-0.1,0.4-0.2c0.1-0.1,0.2-0.2,0.3-0.3s0.1-0.3,0.1-0.5c0-0.4-0.2-0.7-0.6-0.9
			c-0.4-0.1-0.9-0.2-1.6-0.2h-1.4v-3.4h1.6c0.5,0,1-0.1,1.3-0.2c0.3-0.1,0.5-0.4,0.5-0.9c0-0.3-0.1-0.5-0.4-0.7s-0.5-0.2-0.8-0.2
			c-0.4,0-0.7,0.1-1,0.3c-0.3,0.2-0.5,0.5-0.5,1l-4.6-1c0.3-0.8,0.6-1.5,1.1-2s1-1,1.6-1.3c0.6-0.3,1.2-0.6,1.9-0.7
			c0.7-0.1,1.3-0.2,2-0.2c0.7,0,1.3,0.1,2,0.2c0.7,0.2,1.3,0.4,1.9,0.8s1,0.8,1.4,1.4c0.4,0.6,0.5,1.2,0.5,2c0,0.8-0.2,1.5-0.7,2
			C-474.7,376.1-475.2,376.5-475.8,376.7L-475.8,376.7z"/>
		<path class="st2" d="M-533.3,394.6h3.5l3.9,9.9h-3.6l-0.5-1.5h-3.1l-0.5,1.5h-3.5L-533.3,394.6z M-531.6,398.1l-0.8,2.5h1.6
			L-531.6,398.1z"/>
		<path class="st2" d="M-524.5,399.6c0-0.8,0.1-1.5,0.4-2.2s0.7-1.2,1.1-1.7c0.5-0.5,1.1-0.8,1.7-1.1c0.7-0.2,1.4-0.4,2.1-0.4
			c0.8,0,1.5,0.1,2.2,0.4c0.7,0.2,1.3,0.6,1.7,1l-2,2.5c-0.2-0.2-0.4-0.4-0.7-0.6s-0.6-0.2-0.9-0.2c-0.3,0-0.5,0-0.8,0.1
			c-0.2,0.1-0.5,0.2-0.6,0.4s-0.3,0.4-0.4,0.7c-0.1,0.3-0.2,0.6-0.2,0.9c0,0.3,0.1,0.6,0.2,0.9c0.1,0.3,0.3,0.5,0.4,0.7
			c0.2,0.2,0.4,0.3,0.6,0.4s0.5,0.1,0.8,0.1c0.4,0,0.7-0.1,1-0.2c0.3-0.2,0.5-0.3,0.7-0.6l2,2.5c-0.4,0.4-1,0.8-1.7,1.1
			s-1.4,0.4-2.2,0.4c-0.7,0-1.4-0.1-2.1-0.4c-0.7-0.3-1.2-0.6-1.7-1.1s-0.9-1-1.1-1.7C-524.4,401.1-524.5,400.4-524.5,399.6z"/>
		<path class="st2" d="M-508.1,404.5h-3.3v-7.1h-2.4v-2.8h8.2v2.8h-2.4V404.5z"/>
		<path class="st2" d="M-503.2,394.6h3.4v9.9h-3.4V394.6z"/>
		<path class="st2" d="M-497.7,394.6h3.8l1.6,6.1h0.1l1.6-6.1h3.8l-3.6,9.9h-3.7L-497.7,394.6z"/>
		<path class="st2" d="M-484.9,394.6h3.4v9.9h-3.4V394.6z"/>
		<path class="st2" d="M-473.3,404.5h-3.3v-7.1h-2.4v-2.8h8.2v2.8h-2.4V404.5z"/>
		<path class="st2" d="M-462.8,404.5h-3.3v-4.1l-3.7-5.9h4l1.6,2.9l1.5-2.9h3.9l-3.9,5.9V404.5z"/>
		<path class="st2" d="M-533.1,418.9l0.2,5.6h-3.1v-9.9h4.4l1.8,5.3h0.1l1.6-5.3h4.5v9.9h-3.2l0.1-5.6l-0.1,0l-1.8,5.6h-2.4
			L-533.1,418.9L-533.1,418.9z"/>
		<path class="st2" d="M-517.8,414.6h3.5l3.9,9.9h-3.6l-0.5-1.5h-3.1l-0.5,1.5h-3.5L-517.8,414.6z M-516.1,418.1l-0.8,2.5h1.6
			L-516.1,418.1z"/>
		<path class="st2" d="M-508.3,414.6h3.3l2.8,5h0.1l-0.1-5h3.2v9.9h-3.4l-2.7-4.7h-0.1l0.1,4.7h-3.2V414.6z"/>
		<path class="st2" d="M-493.1,414.6h3.5l3.9,9.9h-3.6l-0.5-1.5h-3.1l-0.5,1.5h-3.5L-493.1,414.6z M-491.3,418.1l-0.8,2.5h1.6
			L-491.3,418.1z"/>
		<path class="st2" d="M-478.8,424.8c-0.8,0-1.5-0.1-2.2-0.4c-0.7-0.2-1.2-0.6-1.7-1c-0.5-0.5-0.9-1-1.2-1.6
			c-0.3-0.6-0.4-1.4-0.4-2.2s0.1-1.5,0.4-2.2c0.3-0.6,0.7-1.2,1.1-1.7c0.5-0.5,1.1-0.8,1.7-1.1s1.4-0.4,2.1-0.4
			c0.8,0,1.5,0.1,2.2,0.4c0.7,0.3,1.3,0.6,1.7,1l-1.9,2.3c-0.2-0.2-0.4-0.4-0.7-0.6c-0.3-0.1-0.6-0.2-1-0.2c-0.3,0-0.5,0.1-0.8,0.2
			s-0.5,0.3-0.7,0.5c-0.2,0.2-0.4,0.4-0.5,0.7c-0.1,0.3-0.2,0.6-0.2,0.9c0,0.7,0.2,1.3,0.5,1.7c0.4,0.4,0.9,0.7,1.7,0.7
			c0.1,0,0.3,0,0.4,0c0.1,0,0.3-0.1,0.4-0.1V421h-1.6v-2.6h4.5v5.4c-0.2,0.1-0.5,0.3-0.8,0.4c-0.3,0.1-0.6,0.2-1,0.3
			s-0.7,0.2-1.1,0.2C-478,424.8-478.4,424.8-478.8,424.8z"/>
		<path class="st2" d="M-471.7,414.6h6.8v2.8h-3.7v0.9h3.5v2.6h-3.5v0.9h3.9v2.8h-7.1V414.6z"/>
		<path class="st2" d="M-459,418.9l0.2,5.6h-3.1v-9.9h4.4l1.8,5.3h0.1l1.6-5.3h4.5v9.9h-3.2l0.1-5.6l-0.1,0l-1.8,5.6h-2.4
			L-459,418.9L-459,418.9z"/>
		<path class="st2" d="M-446.4,414.6h6.8v2.8h-3.7v0.9h3.5v2.6h-3.5v0.9h3.9v2.8h-7.1V414.6z"/>
		<path class="st2" d="M-436.6,414.6h3.3l2.8,5h0.1l-0.1-5h3.2v9.9h-3.4l-2.7-4.7h-0.1l0.1,4.7h-3.2V414.6z"/>
		<path class="st2" d="M-419.1,424.5h-3.3v-7.1h-2.4v-2.8h8.2v2.8h-2.4V424.5z"/>
		<path d="M-536.6,434.9h4.8l1.2,8.9l0.8,6.2h0.1c0.4-2.1,0.8-4.2,1.2-6.2l2-8.9h4l2.1,8.9c0.4,2,0.7,4.1,1.1,6.2h0.1
			c0.2-2.1,0.5-4.2,0.7-6.2l1.3-8.9h4.5l-3.4,19.6h-5.9l-1.8-8.5c-0.3-1.5-0.6-3.1-0.8-4.6h-0.1c-0.2,1.5-0.5,3.1-0.8,4.6l-1.7,8.5
			h-5.8L-536.6,434.9z"/>
		<path d="M-496.9,434.9h4.7v7.5h6.5v-7.5h4.7v19.6h-4.7v-8.1h-6.5v8.1h-4.7V434.9z"/>
		<path d="M-463.3,434.9h12.5v3.9h-7.7v3.6h6.6v4h-6.6v4.2h8v4h-12.7V434.9z"/>
		<path d="M-433.5,434.9h12.5v3.9h-7.7v3.6h6.6v4h-6.6v4.2h8v4h-12.7V434.9z"/>
		<path d="M-403.7,434.9h4.7v15.7h7.6v4h-12.3V434.9z"/>
	</g>
</g>
<g id="Layer_5" class="st0">
	<g id="XMLID_6_" class="st1">
		<path d="M-530.9,342.8h-5.3v-3.9h15.4v3.9h-5.3v15.7h-4.7V342.8z"/>
		<path d="M-499.4,338.9h4.7v7.5h6.5v-7.5h4.7v19.6h-4.7v-8.1h-6.5v8.1h-4.7V338.9z"/>
		<path d="M-460.5,338.9h12.5v3.9h-7.7v3.6h6.6v4h-6.6v4.2h8v4h-12.7V338.9z"/>
		<path class="st2" d="M-529.6,385c-0.9,0-1.7-0.1-2.4-0.4c-0.7-0.2-1.3-0.6-1.8-1s-0.9-0.9-1.2-1.4c-0.3-0.5-0.6-1.1-0.8-1.7
			c-0.2-0.6-0.3-1.2-0.4-1.8c-0.1-0.6-0.1-1.2-0.1-1.7c0-0.5,0-1.1,0.1-1.7c0.1-0.6,0.2-1.2,0.4-1.8s0.4-1.1,0.8-1.6
			c0.3-0.5,0.7-1,1.2-1.4s1.1-0.7,1.8-0.9c0.7-0.2,1.5-0.3,2.4-0.3c1.4,0,2.5,0.2,3.4,0.7c0.9,0.5,1.5,1.1,2,1.9
			c0.5,0.8,0.8,1.6,1,2.5s0.3,1.8,0.3,2.6c0,0.5,0,1.1-0.1,1.7c-0.1,0.6-0.2,1.2-0.4,1.8c-0.2,0.6-0.4,1.1-0.8,1.7
			c-0.3,0.5-0.7,1-1.2,1.4c-0.5,0.4-1.1,0.7-1.8,1C-527.9,384.8-528.7,385-529.6,385z M-529.6,373.6c-0.3,0-0.6,0.1-0.8,0.3
			c-0.2,0.2-0.4,0.5-0.5,0.8s-0.2,0.7-0.2,1.1c0,0.4-0.1,0.8-0.1,1.2c0,0.4,0,0.8,0.1,1.2c0,0.4,0.1,0.8,0.2,1.2
			c0.1,0.4,0.3,0.6,0.5,0.9c0.2,0.2,0.4,0.3,0.8,0.3c0.3,0,0.6-0.1,0.8-0.3c0.2-0.2,0.4-0.5,0.5-0.9c0.1-0.3,0.2-0.7,0.2-1.2
			c0-0.4,0.1-0.8,0.1-1.2c0-0.4,0-0.8-0.1-1.2c0-0.4-0.1-0.8-0.2-1.1s-0.3-0.6-0.5-0.8C-529.1,373.7-529.3,373.6-529.6,373.6z"/>
		<path class="st2" d="M-512.1,375l-2.5,1.7l-2.4-3.7l5.3-3.4h4.6v14.9h-5V375z"/>
		<path class="st2" d="M-497.8,375.9c0-0.4,0.1-0.7,0.2-1c0.1-0.3,0.3-0.6,0.6-0.8c0.2-0.2,0.5-0.4,0.8-0.5c0.3-0.1,0.7-0.2,1-0.2
			c0.3,0,0.7,0.1,1,0.2c0.3,0.1,0.6,0.3,0.8,0.5c0.2,0.2,0.4,0.5,0.6,0.8s0.2,0.6,0.2,1c0,0.4-0.1,0.7-0.2,1
			c-0.1,0.3-0.3,0.6-0.6,0.8c-0.2,0.2-0.5,0.4-0.8,0.5c-0.3,0.1-0.6,0.2-1,0.2c-0.4,0-0.7-0.1-1-0.2c-0.3-0.1-0.6-0.3-0.8-0.5
			c-0.2-0.2-0.4-0.5-0.6-0.8C-497.7,376.6-497.8,376.3-497.8,375.9z M-497.8,382.1c0-0.3,0.1-0.7,0.2-1c0.1-0.3,0.3-0.6,0.6-0.8
			c0.2-0.2,0.5-0.4,0.8-0.5c0.3-0.1,0.7-0.2,1-0.2c0.3,0,0.7,0.1,1,0.2c0.3,0.1,0.6,0.3,0.8,0.5s0.4,0.5,0.6,0.8s0.2,0.6,0.2,1
			c0,0.4-0.1,0.7-0.2,1c-0.1,0.3-0.3,0.6-0.6,0.8s-0.5,0.4-0.8,0.5c-0.3,0.1-0.6,0.2-1,0.2c-0.4,0-0.7-0.1-1-0.2
			c-0.3-0.1-0.6-0.3-0.8-0.5c-0.2-0.2-0.4-0.5-0.6-0.8C-497.7,382.8-497.8,382.5-497.8,382.1z"/>
		<path class="st2" d="M-473.4,379.5c0,1-0.2,1.9-0.6,2.6c-0.4,0.7-0.9,1.2-1.5,1.7c-0.6,0.4-1.3,0.7-2,0.9
			c-0.7,0.2-1.5,0.3-2.2,0.3c-0.8,0-1.5-0.1-2.2-0.3c-0.7-0.2-1.4-0.5-2-0.9s-1.1-0.9-1.5-1.4c-0.4-0.6-0.7-1.2-0.8-1.9l4.6-1.2
			c0.1,0.4,0.3,0.8,0.6,1.1c0.3,0.3,0.7,0.5,1.2,0.5c0.4,0,0.7-0.1,1-0.3c0.3-0.2,0.4-0.5,0.4-0.9c0-0.3-0.1-0.5-0.2-0.6
			c-0.2-0.2-0.4-0.3-0.6-0.4s-0.5-0.2-0.9-0.2c-0.3,0-0.6-0.1-0.9-0.1c-0.2,0-0.5,0-0.8,0c-0.3,0-0.6,0.1-1,0.1
			c-0.4,0-0.7,0.1-1.1,0.1s-0.7,0.1-1,0.2l0.5-9.1h10.1v4.2h-5.9l-0.1,1.1c0.2,0,0.4-0.1,0.6-0.1c0.2,0,0.4,0,0.5,0
			c0.8,0,1.5,0.1,2.2,0.3c0.7,0.2,1.3,0.5,1.8,0.9c0.5,0.4,0.9,0.9,1.2,1.5C-473.5,378-473.4,378.7-473.4,379.5z"/>
		<path class="st2" d="M-532.8,401.3v3.2h-3.3v-9.9h4.3c0.5,0,1,0.1,1.5,0.2s0.9,0.3,1.3,0.5c0.4,0.3,0.7,0.6,0.9,1
			c0.2,0.4,0.4,1,0.4,1.6c0,0.6-0.1,1.1-0.3,1.6c-0.2,0.4-0.5,0.8-0.9,1.1c-0.4,0.3-0.8,0.5-1.3,0.6c-0.5,0.1-1,0.2-1.5,0.2H-532.8z
			 M-532.8,397.2v1.6h0.7c0.3,0,0.5-0.1,0.7-0.2c0.2-0.1,0.3-0.3,0.3-0.6c0-0.2,0-0.3-0.1-0.4c-0.1-0.1-0.1-0.2-0.2-0.2
			c-0.1-0.1-0.2-0.1-0.3-0.1c-0.1,0-0.2,0-0.4,0H-532.8z"/>
		<path class="st2" d="M-525.1,394.6h4.3c0.5,0,1,0,1.4,0.1c0.5,0.1,0.9,0.3,1.3,0.5c0.4,0.2,0.7,0.6,0.9,1c0.2,0.4,0.4,0.9,0.4,1.6
			c0,0.6-0.1,1.1-0.4,1.6s-0.7,0.8-1.3,1.1l2.5,4h-3.8l-1.9-3.5h-0.1v3.5h-3.2V394.6z M-521.9,398.8h0.7c0.1,0,0.2,0,0.4,0
			c0.1,0,0.3-0.1,0.4-0.1s0.2-0.1,0.3-0.3s0.1-0.2,0.1-0.4c0-0.2,0-0.3-0.1-0.4c-0.1-0.1-0.1-0.2-0.2-0.2c-0.1-0.1-0.2-0.1-0.3-0.1
			c-0.1,0-0.2,0-0.3,0h-0.8V398.8z"/>
		<path class="st2" d="M-514.2,399.5c0-0.8,0.1-1.5,0.4-2.1c0.3-0.6,0.7-1.2,1.2-1.6c0.5-0.4,1.1-0.8,1.7-1c0.7-0.2,1.4-0.4,2.2-0.4
			s1.5,0.1,2.2,0.4c0.7,0.2,1.3,0.6,1.8,1c0.5,0.4,0.9,1,1.2,1.6c0.3,0.6,0.4,1.4,0.4,2.1c0,0.8-0.1,1.5-0.4,2.2
			c-0.3,0.7-0.7,1.2-1.2,1.7c-0.5,0.5-1.1,0.8-1.8,1.1s-1.4,0.4-2.2,0.4s-1.5-0.1-2.2-0.4s-1.3-0.6-1.7-1.1c-0.5-0.5-0.9-1-1.2-1.7
			S-514.2,400.3-514.2,399.5z M-510.6,399.5c0,0.3,0,0.6,0.1,0.9s0.2,0.5,0.4,0.7c0.2,0.2,0.4,0.3,0.6,0.5s0.5,0.2,0.8,0.2
			s0.5-0.1,0.8-0.2c0.2-0.1,0.4-0.3,0.6-0.5c0.2-0.2,0.3-0.4,0.4-0.7s0.1-0.6,0.1-0.9c0-0.3,0-0.6-0.1-0.9c-0.1-0.3-0.2-0.5-0.4-0.7
			c-0.2-0.2-0.4-0.3-0.6-0.4c-0.2-0.1-0.5-0.2-0.8-0.2s-0.5,0.1-0.8,0.2s-0.5,0.2-0.6,0.4c-0.2,0.2-0.3,0.4-0.4,0.7
			C-510.6,398.9-510.6,399.2-510.6,399.5z"/>
		<path class="st2" d="M-500.3,404.5v-9.9h3.7c0.8,0,1.5,0.1,2.2,0.2c0.7,0.2,1.3,0.4,1.9,0.8c0.5,0.4,1,0.9,1.3,1.5
			s0.5,1.4,0.5,2.4c0,0.9-0.2,1.6-0.5,2.3s-0.7,1.2-1.3,1.6c-0.5,0.4-1.1,0.7-1.8,0.9c-0.7,0.2-1.4,0.3-2.1,0.3H-500.3z
			 M-497.1,397.4v4.2h0.6c0.8,0,1.4-0.2,1.8-0.5c0.4-0.3,0.6-0.9,0.6-1.7c0-0.6-0.2-1.1-0.6-1.5c-0.4-0.4-1-0.5-1.7-0.5H-497.1z"/>
		<path class="st2" d="M-483.5,404.8c-0.8,0-1.4-0.1-2-0.3c-0.6-0.2-1.1-0.5-1.4-0.9c-0.4-0.4-0.7-0.8-0.9-1.3
			c-0.2-0.5-0.3-1.1-0.3-1.6v-6h3.3v5.7c0,0.5,0.1,0.8,0.3,1.1c0.2,0.3,0.6,0.4,1,0.4s0.7-0.1,1-0.4c0.2-0.3,0.3-0.6,0.3-1.1v-5.7
			h3.3v6c0,0.6-0.1,1.1-0.3,1.6c-0.2,0.5-0.5,0.9-0.9,1.3c-0.4,0.4-0.9,0.7-1.5,0.9C-482,404.7-482.7,404.8-483.5,404.8z"/>
		<path class="st2" d="M-476.1,399.6c0-0.8,0.1-1.5,0.4-2.2s0.7-1.2,1.1-1.7c0.5-0.5,1.1-0.8,1.7-1.1c0.7-0.2,1.4-0.4,2.1-0.4
			c0.8,0,1.5,0.1,2.2,0.4c0.7,0.2,1.3,0.6,1.7,1l-2,2.5c-0.2-0.2-0.4-0.4-0.7-0.6s-0.6-0.2-0.9-0.2c-0.3,0-0.5,0-0.8,0.1
			c-0.2,0.1-0.5,0.2-0.6,0.4s-0.3,0.4-0.4,0.7c-0.1,0.3-0.2,0.6-0.2,0.9c0,0.3,0.1,0.6,0.2,0.9c0.1,0.3,0.3,0.5,0.4,0.7
			c0.2,0.2,0.4,0.3,0.6,0.4s0.5,0.1,0.8,0.1c0.4,0,0.7-0.1,1-0.2c0.3-0.2,0.5-0.3,0.7-0.6l2,2.5c-0.4,0.4-1,0.8-1.7,1.1
			s-1.4,0.4-2.2,0.4c-0.7,0-1.4-0.1-2.1-0.4c-0.7-0.3-1.2-0.6-1.7-1.1s-0.9-1-1.1-1.7C-476,401.1-476.1,400.4-476.1,399.6z"/>
		<path class="st2" d="M-459.7,404.5h-3.3v-7.1h-2.4v-2.8h8.2v2.8h-2.4V404.5z"/>
		<path class="st2" d="M-533.1,418.9l0.2,5.6h-3.1v-9.9h4.4l1.8,5.3h0.1l1.6-5.3h4.5v9.9h-3.2l0.1-5.6l-0.1,0l-1.8,5.6h-2.4
			L-533.1,418.9L-533.1,418.9z"/>
		<path class="st2" d="M-517.8,414.6h3.5l3.9,9.9h-3.6l-0.5-1.5h-3.1l-0.5,1.5h-3.5L-517.8,414.6z M-516.1,418.1l-0.8,2.5h1.6
			L-516.1,418.1z"/>
		<path class="st2" d="M-508.3,414.6h3.3l2.8,5h0.1l-0.1-5h3.2v9.9h-3.4l-2.7-4.7h-0.1l0.1,4.7h-3.2V414.6z"/>
		<path class="st2" d="M-493.1,414.6h3.5l3.9,9.9h-3.6l-0.5-1.5h-3.1l-0.5,1.5h-3.5L-493.1,414.6z M-491.3,418.1l-0.8,2.5h1.6
			L-491.3,418.1z"/>
		<path class="st2" d="M-478.8,424.8c-0.8,0-1.5-0.1-2.2-0.4c-0.7-0.2-1.2-0.6-1.7-1c-0.5-0.5-0.9-1-1.2-1.6
			c-0.3-0.6-0.4-1.4-0.4-2.2s0.1-1.5,0.4-2.2c0.3-0.6,0.7-1.2,1.1-1.7c0.5-0.5,1.1-0.8,1.7-1.1s1.4-0.4,2.1-0.4
			c0.8,0,1.5,0.1,2.2,0.4c0.7,0.3,1.3,0.6,1.7,1l-1.9,2.3c-0.2-0.2-0.4-0.4-0.7-0.6c-0.3-0.1-0.6-0.2-1-0.2c-0.3,0-0.5,0.1-0.8,0.2
			s-0.5,0.3-0.7,0.5c-0.2,0.2-0.4,0.4-0.5,0.7c-0.1,0.3-0.2,0.6-0.2,0.9c0,0.7,0.2,1.3,0.5,1.7c0.4,0.4,0.9,0.7,1.7,0.7
			c0.1,0,0.3,0,0.4,0c0.1,0,0.3-0.1,0.4-0.1V421h-1.6v-2.6h4.5v5.4c-0.2,0.1-0.5,0.3-0.8,0.4c-0.3,0.1-0.6,0.2-1,0.3
			s-0.7,0.2-1.1,0.2C-478,424.8-478.4,424.8-478.8,424.8z"/>
		<path class="st2" d="M-471.7,414.6h6.8v2.8h-3.7v0.9h3.5v2.6h-3.5v0.9h3.9v2.8h-7.1V414.6z"/>
		<path class="st2" d="M-459,418.9l0.2,5.6h-3.1v-9.9h4.4l1.8,5.3h0.1l1.6-5.3h4.5v9.9h-3.2l0.1-5.6l-0.1,0l-1.8,5.6h-2.4
			L-459,418.9L-459,418.9z"/>
		<path class="st2" d="M-446.4,414.6h6.8v2.8h-3.7v0.9h3.5v2.6h-3.5v0.9h3.9v2.8h-7.1V414.6z"/>
		<path class="st2" d="M-436.6,414.6h3.3l2.8,5h0.1l-0.1-5h3.2v9.9h-3.4l-2.7-4.7h-0.1l0.1,4.7h-3.2V414.6z"/>
		<path class="st2" d="M-419.1,424.5h-3.3v-7.1h-2.4v-2.8h8.2v2.8h-2.4V424.5z"/>
		<path d="M-536.6,434.9h4.8l1.2,8.9l0.8,6.2h0.1c0.4-2.1,0.8-4.2,1.2-6.2l2-8.9h4l2.1,8.9c0.4,2,0.7,4.1,1.1,6.2h0.1
			c0.2-2.1,0.5-4.2,0.7-6.2l1.3-8.9h4.5l-3.4,19.6h-5.9l-1.8-8.5c-0.3-1.5-0.6-3.1-0.8-4.6h-0.1c-0.2,1.5-0.5,3.1-0.8,4.6l-1.7,8.5
			h-5.8L-536.6,434.9z"/>
		<path d="M-496.9,434.9h4.7v7.5h6.5v-7.5h4.7v19.6h-4.7v-8.1h-6.5v8.1h-4.7V434.9z"/>
		<path d="M-463.3,434.9h12.5v3.9h-7.7v3.6h6.6v4h-6.6v4.2h8v4h-12.7V434.9z"/>
		<path d="M-433.5,434.9h12.5v3.9h-7.7v3.6h6.6v4h-6.6v4.2h8v4h-12.7V434.9z"/>
		<path d="M-403.7,434.9h4.7v15.7h7.6v4h-12.3V434.9z"/>
	</g>
</g>
<g id="Layer_6" class="st0">
	<g id="XMLID_7_" class="st1">
		<path d="M-530.9,342.8h-5.3v-3.9h15.4v3.9h-5.3v15.7h-4.7V342.8z"/>
		<path d="M-499.4,338.9h4.7v7.5h6.5v-7.5h4.7v19.6h-4.7v-8.1h-6.5v8.1h-4.7V338.9z"/>
		<path d="M-460.5,338.9h12.5v3.9h-7.7v3.6h6.6v4h-6.6v4.2h8v4h-12.7V338.9z"/>
		<path class="st2" d="M-529.6,385c-0.9,0-1.7-0.1-2.4-0.4c-0.7-0.2-1.3-0.6-1.8-1s-0.9-0.9-1.2-1.4c-0.3-0.5-0.6-1.1-0.8-1.7
			c-0.2-0.6-0.3-1.2-0.4-1.8c-0.1-0.6-0.1-1.2-0.1-1.7c0-0.5,0-1.1,0.1-1.7c0.1-0.6,0.2-1.2,0.4-1.8s0.4-1.1,0.8-1.6
			c0.3-0.5,0.7-1,1.2-1.4s1.1-0.7,1.8-0.9c0.7-0.2,1.5-0.3,2.4-0.3c1.4,0,2.5,0.2,3.4,0.7c0.9,0.5,1.5,1.1,2,1.9
			c0.5,0.8,0.8,1.6,1,2.5s0.3,1.8,0.3,2.6c0,0.5,0,1.1-0.1,1.7c-0.1,0.6-0.2,1.2-0.4,1.8c-0.2,0.6-0.4,1.1-0.8,1.7
			c-0.3,0.5-0.7,1-1.2,1.4c-0.5,0.4-1.1,0.7-1.8,1C-527.9,384.8-528.7,385-529.6,385z M-529.6,373.6c-0.3,0-0.6,0.1-0.8,0.3
			c-0.2,0.2-0.4,0.5-0.5,0.8s-0.2,0.7-0.2,1.1c0,0.4-0.1,0.8-0.1,1.2c0,0.4,0,0.8,0.1,1.2c0,0.4,0.1,0.8,0.2,1.2
			c0.1,0.4,0.3,0.6,0.5,0.9c0.2,0.2,0.4,0.3,0.8,0.3c0.3,0,0.6-0.1,0.8-0.3c0.2-0.2,0.4-0.5,0.5-0.9c0.1-0.3,0.2-0.7,0.2-1.2
			c0-0.4,0.1-0.8,0.1-1.2c0-0.4,0-0.8-0.1-1.2c0-0.4-0.1-0.8-0.2-1.1s-0.3-0.6-0.5-0.8C-529.1,373.7-529.3,373.6-529.6,373.6z"/>
		<path class="st2" d="M-512.1,375l-2.5,1.7l-2.4-3.7l5.3-3.4h4.6v14.9h-5V375z"/>
		<path class="st2" d="M-497.8,375.9c0-0.4,0.1-0.7,0.2-1c0.1-0.3,0.3-0.6,0.6-0.8c0.2-0.2,0.5-0.4,0.8-0.5c0.3-0.1,0.7-0.2,1-0.2
			c0.3,0,0.7,0.1,1,0.2c0.3,0.1,0.6,0.3,0.8,0.5c0.2,0.2,0.4,0.5,0.6,0.8s0.2,0.6,0.2,1c0,0.4-0.1,0.7-0.2,1
			c-0.1,0.3-0.3,0.6-0.6,0.8c-0.2,0.2-0.5,0.4-0.8,0.5c-0.3,0.1-0.6,0.2-1,0.2c-0.4,0-0.7-0.1-1-0.2c-0.3-0.1-0.6-0.3-0.8-0.5
			c-0.2-0.2-0.4-0.5-0.6-0.8C-497.7,376.6-497.8,376.3-497.8,375.9z M-497.8,382.1c0-0.3,0.1-0.7,0.2-1c0.1-0.3,0.3-0.6,0.6-0.8
			c0.2-0.2,0.5-0.4,0.8-0.5c0.3-0.1,0.7-0.2,1-0.2c0.3,0,0.7,0.1,1,0.2c0.3,0.1,0.6,0.3,0.8,0.5s0.4,0.5,0.6,0.8s0.2,0.6,0.2,1
			c0,0.4-0.1,0.7-0.2,1c-0.1,0.3-0.3,0.6-0.6,0.8s-0.5,0.4-0.8,0.5c-0.3,0.1-0.6,0.2-1,0.2c-0.4,0-0.7-0.1-1-0.2
			c-0.3-0.1-0.6-0.3-0.8-0.5c-0.2-0.2-0.4-0.5-0.6-0.8C-497.7,382.8-497.8,382.5-497.8,382.1z"/>
		<path class="st2" d="M-478.2,374.3c0.6,0,1.3,0.1,1.9,0.3c0.6,0.2,1.2,0.5,1.6,1c0.5,0.4,0.9,0.9,1.1,1.6c0.3,0.6,0.4,1.3,0.4,2.1
			c0,0.9-0.2,1.8-0.5,2.5c-0.4,0.7-0.8,1.3-1.4,1.8c-0.6,0.5-1.3,0.8-2.1,1.1c-0.8,0.2-1.6,0.4-2.5,0.4c-0.9,0-1.7-0.1-2.5-0.3
			c-0.8-0.2-1.5-0.6-2.1-1c-0.6-0.5-1.1-1-1.4-1.8c-0.4-0.7-0.5-1.5-0.5-2.5c0-0.9,0.2-1.8,0.6-2.6c0.4-0.8,0.8-1.6,1.3-2.3l3.4-4.8
			h6.1l-3.4,4.4l-0.2,0.2H-478.2z M-479.7,377.8c-0.4,0-0.8,0.1-1.1,0.4c-0.3,0.3-0.4,0.6-0.4,1.1c0,0.4,0.1,0.8,0.4,1.1
			c0.3,0.3,0.7,0.4,1.1,0.4c0.5,0,0.9-0.1,1.1-0.4c0.3-0.3,0.4-0.7,0.4-1.1c0-0.4-0.1-0.8-0.4-1.1
			C-478.8,378-479.2,377.8-479.7,377.8z"/>
		<path class="st2" d="M-532.8,398.4h3v2.7h-3v3.4h-3.3v-9.9h6.7v2.8h-3.4V398.4z"/>
		<path class="st2" d="M-527,399.5c0-0.8,0.1-1.5,0.4-2.1c0.3-0.6,0.7-1.2,1.2-1.6c0.5-0.4,1.1-0.8,1.7-1c0.7-0.2,1.4-0.4,2.2-0.4
			s1.5,0.1,2.2,0.4c0.7,0.2,1.3,0.6,1.8,1c0.5,0.4,0.9,1,1.2,1.6c0.3,0.6,0.4,1.4,0.4,2.1c0,0.8-0.1,1.5-0.4,2.2
			c-0.3,0.7-0.7,1.2-1.2,1.7c-0.5,0.5-1.1,0.8-1.8,1.1s-1.4,0.4-2.2,0.4s-1.5-0.1-2.2-0.4s-1.3-0.6-1.7-1.1c-0.5-0.5-0.9-1-1.2-1.7
			S-527,400.3-527,399.5z M-523.4,399.5c0,0.3,0,0.6,0.1,0.9s0.2,0.5,0.4,0.7c0.2,0.2,0.4,0.3,0.6,0.5s0.5,0.2,0.8,0.2
			s0.5-0.1,0.8-0.2c0.2-0.1,0.4-0.3,0.6-0.5c0.2-0.2,0.3-0.4,0.4-0.7s0.1-0.6,0.1-0.9c0-0.3,0-0.6-0.1-0.9c-0.1-0.3-0.2-0.5-0.4-0.7
			c-0.2-0.2-0.4-0.3-0.6-0.4c-0.2-0.1-0.5-0.2-0.8-0.2s-0.5,0.1-0.8,0.2s-0.5,0.2-0.6,0.4c-0.2,0.2-0.3,0.4-0.4,0.7
			C-523.4,398.9-523.4,399.2-523.4,399.5z"/>
		<path class="st2" d="M-513.2,394.6h4.3c0.5,0,1,0,1.4,0.1c0.5,0.1,0.9,0.3,1.3,0.5c0.4,0.2,0.7,0.6,0.9,1c0.2,0.4,0.4,0.9,0.4,1.6
			c0,0.6-0.1,1.1-0.4,1.6s-0.7,0.8-1.3,1.1l2.5,4h-3.8l-1.9-3.5h-0.1v3.5h-3.2V394.6z M-510,398.8h0.7c0.1,0,0.2,0,0.4,0
			c0.1,0,0.3-0.1,0.4-0.1s0.2-0.1,0.3-0.3s0.1-0.2,0.1-0.4c0-0.2,0-0.3-0.1-0.4c-0.1-0.1-0.1-0.2-0.2-0.2c-0.1-0.1-0.2-0.1-0.3-0.1
			c-0.1,0-0.2,0-0.3,0h-0.8V398.8z"/>
		<path class="st2" d="M-497.3,404.8c-0.8,0-1.4-0.1-2-0.3c-0.6-0.2-1.1-0.5-1.4-0.9c-0.4-0.4-0.7-0.8-0.9-1.3
			c-0.2-0.5-0.3-1.1-0.3-1.6v-6h3.3v5.7c0,0.5,0.1,0.8,0.3,1.1c0.2,0.3,0.6,0.4,1,0.4s0.7-0.1,1-0.4c0.2-0.3,0.3-0.6,0.3-1.1v-5.7
			h3.3v6c0,0.6-0.1,1.1-0.3,1.6c-0.2,0.5-0.5,0.9-0.9,1.3c-0.4,0.4-0.9,0.7-1.5,0.9C-495.9,404.7-496.5,404.8-497.3,404.8z"/>
		<path class="st2" d="M-486.6,398.9l0.2,5.6h-3.1v-9.9h4.4l1.8,5.3h0.1l1.6-5.3h4.5v9.9h-3.2l0.1-5.6l-0.1,0l-1.8,5.6h-2.4
			L-486.6,398.9L-486.6,398.9z"/>
		<path class="st2" d="M-533.1,418.9l0.2,5.6h-3.1v-9.9h4.4l1.8,5.3h0.1l1.6-5.3h4.5v9.9h-3.2l0.1-5.6l-0.1,0l-1.8,5.6h-2.4
			L-533.1,418.9L-533.1,418.9z"/>
		<path class="st2" d="M-517.8,414.6h3.5l3.9,9.9h-3.6l-0.5-1.5h-3.1l-0.5,1.5h-3.5L-517.8,414.6z M-516.1,418.1l-0.8,2.5h1.6
			L-516.1,418.1z"/>
		<path class="st2" d="M-508.3,414.6h3.3l2.8,5h0.1l-0.1-5h3.2v9.9h-3.4l-2.7-4.7h-0.1l0.1,4.7h-3.2V414.6z"/>
		<path class="st2" d="M-493.1,414.6h3.5l3.9,9.9h-3.6l-0.5-1.5h-3.1l-0.5,1.5h-3.5L-493.1,414.6z M-491.3,418.1l-0.8,2.5h1.6
			L-491.3,418.1z"/>
		<path class="st2" d="M-478.8,424.8c-0.8,0-1.5-0.1-2.2-0.4c-0.7-0.2-1.2-0.6-1.7-1c-0.5-0.5-0.9-1-1.2-1.6
			c-0.3-0.6-0.4-1.4-0.4-2.2s0.1-1.5,0.4-2.2c0.3-0.6,0.7-1.2,1.1-1.7c0.5-0.5,1.1-0.8,1.7-1.1s1.4-0.4,2.1-0.4
			c0.8,0,1.5,0.1,2.2,0.4c0.7,0.3,1.3,0.6,1.7,1l-1.9,2.3c-0.2-0.2-0.4-0.4-0.7-0.6c-0.3-0.1-0.6-0.2-1-0.2c-0.3,0-0.5,0.1-0.8,0.2
			s-0.5,0.3-0.7,0.5c-0.2,0.2-0.4,0.4-0.5,0.7c-0.1,0.3-0.2,0.6-0.2,0.9c0,0.7,0.2,1.3,0.5,1.7c0.4,0.4,0.9,0.7,1.7,0.7
			c0.1,0,0.3,0,0.4,0c0.1,0,0.3-0.1,0.4-0.1V421h-1.6v-2.6h4.5v5.4c-0.2,0.1-0.5,0.3-0.8,0.4c-0.3,0.1-0.6,0.2-1,0.3
			s-0.7,0.2-1.1,0.2C-478,424.8-478.4,424.8-478.8,424.8z"/>
		<path class="st2" d="M-471.7,414.6h6.8v2.8h-3.7v0.9h3.5v2.6h-3.5v0.9h3.9v2.8h-7.1V414.6z"/>
		<path class="st2" d="M-459,418.9l0.2,5.6h-3.1v-9.9h4.4l1.8,5.3h0.1l1.6-5.3h4.5v9.9h-3.2l0.1-5.6l-0.1,0l-1.8,5.6h-2.4
			L-459,418.9L-459,418.9z"/>
		<path class="st2" d="M-446.4,414.6h6.8v2.8h-3.7v0.9h3.5v2.6h-3.5v0.9h3.9v2.8h-7.1V414.6z"/>
		<path class="st2" d="M-436.6,414.6h3.3l2.8,5h0.1l-0.1-5h3.2v9.9h-3.4l-2.7-4.7h-0.1l0.1,4.7h-3.2V414.6z"/>
		<path class="st2" d="M-419.1,424.5h-3.3v-7.1h-2.4v-2.8h8.2v2.8h-2.4V424.5z"/>
		<path d="M-536.6,434.9h4.8l1.2,8.9l0.8,6.2h0.1c0.4-2.1,0.8-4.2,1.2-6.2l2-8.9h4l2.1,8.9c0.4,2,0.7,4.1,1.1,6.2h0.1
			c0.2-2.1,0.5-4.2,0.7-6.2l1.3-8.9h4.5l-3.4,19.6h-5.9l-1.8-8.5c-0.3-1.5-0.6-3.1-0.8-4.6h-0.1c-0.2,1.5-0.5,3.1-0.8,4.6l-1.7,8.5
			h-5.8L-536.6,434.9z"/>
		<path d="M-496.9,434.9h4.7v7.5h6.5v-7.5h4.7v19.6h-4.7v-8.1h-6.5v8.1h-4.7V434.9z"/>
		<path d="M-463.3,434.9h12.5v3.9h-7.7v3.6h6.6v4h-6.6v4.2h8v4h-12.7V434.9z"/>
		<path d="M-433.5,434.9h12.5v3.9h-7.7v3.6h6.6v4h-6.6v4.2h8v4h-12.7V434.9z"/>
		<path d="M-403.7,434.9h4.7v15.7h7.6v4h-12.3V434.9z"/>
	</g>
</g>
</svg>
