<?xml version="1.0" encoding="utf-8"?>
<!-- Generator: Adobe Illustrator 19.0.0, SVG Export Plug-In . SVG Version: 6.00 Build 0)  -->
<svg version="1.1" id="Layer_1" xmlns="http://www.w3.org/2000/svg" xmlns:xlink="http://www.w3.org/1999/xlink" x="0px" y="0px"
	 viewBox="-137.4 153.1 28.3 487.6" style="enable-background:new -137.4 153.1 28.3 487.6;" xml:space="preserve">
<style type="text/css">
	.st0{fill:#E14040;}
</style>
<g id="XMLID_1_">
	<path id="XMLID_458_" class="st0" d="M-130.3,166.8V162h10.2v-3.5h4v11.7h-4v-3.5L-130.3,166.8L-130.3,166.8z"/>
	<path id="XMLID_460_" class="st0" d="M-124.9,200.2v-3.9h-5.4v-4.8h14.2v4.7h-4.8v3.9h4.8v4.8h-14.2v-4.8L-124.9,200.2
		L-124.9,200.2z"/>
	<path id="XMLID_462_" class="st0" d="M-116.1,227.7v9.7h-4v-5.2h-1.2v5h-3.7v-5h-1.3v5.6h-4v-10.1H-116.1z"/>
	<path id="XMLID_464_" class="st0" d="M-130.3,491.9v-4.8l14.2-3.9v5l-8,1.5v0.1l8,1.6v5l-8,1.8v0.1l8,1.5v4.9l-14.2-3.9V496l8-2
		v-0.1L-130.3,491.9z"/>
	<path id="XMLID_466_" class="st0" d="M-124.9,534.7v-3.9h-5.4V526h14.2v4.7h-4.8v3.9h4.8v4.8h-14.2v-4.8L-124.9,534.7L-124.9,534.7
		z"/>
	<path id="XMLID_468_" class="st0" d="M-116.1,562v9.7h-4v-5.3h-1.2v4.9h-3.7v-4.9h-1.3v5.6h-4V562L-116.1,562L-116.1,562z"/>
	<path id="XMLID_470_" class="st0" d="M-116.1,594.2v9.7h-4v-5.3h-1.2v4.9h-3.7v-4.9h-1.3v5.6h-4v-10H-116.1z"/>
	<path id="XMLID_472_" class="st0" d="M-116.1,626.2v4.8h-10.1v4.7h-4.1v-9.5H-116.1z"/>
</g>
<g id="XMLID_457_">
</g>
<g id="XMLID_474_">
</g>
<g id="XMLID_475_">
</g>
<g id="XMLID_476_">
</g>
<g id="XMLID_477_">
</g>
<g id="XMLID_478_">
</g>
</svg>
